<svg width="874" height="54" viewBox="0 0 874 54" fill="none" xmlns="http://www.w3.org/2000/svg">
<g filter="url(#filter0_d_65_2537)">
<path d="M144.14 26.1531C141.46 26.1086 139.107 26.5106 138.884 27.0524C138.662 27.5943 140.656 28.0694 143.336 28.1139C146.017 28.1583 148.37 27.7563 148.593 27.2145C148.814 26.6743 146.821 26.1992 144.14 26.1531Z" fill="#D22A1F"/>
<path d="M131.967 25.6208C128.394 25.5604 125.256 26.0974 124.958 26.8204C124.661 27.5418 127.32 28.1758 130.895 28.2362C134.468 28.2966 137.607 27.7595 137.904 27.0365C138.199 26.3135 135.541 25.6811 131.967 25.6208Z" fill="#D22A1F"/>
<path d="M115.736 24.9105C110.971 24.831 106.786 25.5461 106.391 26.509C105.996 27.4719 109.539 28.3172 114.306 28.3967C119.071 28.4761 123.257 27.7611 123.651 26.7982C124.045 25.8353 120.501 24.9899 115.736 24.9105Z" fill="#D22A1F"/>
<path d="M94.0945 23.9619C87.7402 23.8554 82.1614 24.8104 81.6354 26.0927C81.1095 27.3766 85.8335 28.5031 92.1877 28.6096C98.542 28.716 104.121 27.7627 104.648 26.4788C105.176 25.1949 100.449 24.0683 94.0945 23.9619Z" fill="#D22A1F"/>
<path d="M65.2389 22.6987C56.7666 22.5572 49.3287 23.83 48.6248 25.5413C47.9224 27.2526 54.221 28.7558 62.695 28.8972C71.1673 29.0386 78.6053 27.7675 79.3076 26.0561C80.0099 24.3432 73.7113 22.8417 65.2389 22.6987Z" fill="#D22A1F"/>
<path d="M26.7655 21.0144C15.468 20.8253 5.55128 22.5223 4.61538 24.804C3.67789 27.0858 12.0772 29.0895 23.3731 29.2786C34.6706 29.4677 44.5873 27.7706 45.5248 25.4889C46.4607 23.2071 38.0614 21.2051 26.7655 21.0144Z" fill="#D22A1F"/>
<path d="M158.903 27.8469C161.584 27.8914 163.937 27.4894 164.16 26.9475C164.382 26.4057 162.388 25.9306 159.707 25.8861C157.027 25.8416 154.673 26.2436 154.451 26.7855C154.229 27.3273 156.223 27.8024 158.903 27.8469Z" fill="#D22A1F"/>
<path d="M171.076 28.3808C174.65 28.4411 177.788 27.9041 178.085 27.1811C178.382 26.4597 175.724 25.8257 172.149 25.7653C168.575 25.705 165.437 26.242 165.14 26.965C164.844 27.6864 167.503 28.3204 171.076 28.3808Z" fill="#D22A1F"/>
<path d="M187.308 29.0911C192.073 29.1705 196.258 28.4555 196.652 27.4925C197.048 26.5296 193.504 25.6843 188.738 25.6049C183.972 25.5254 179.787 26.2405 179.393 27.2034C178.999 28.1663 182.542 29.0116 187.308 29.0911Z" fill="#D22A1F"/>
<path d="M208.949 30.0381C215.303 30.1445 220.882 29.1895 221.408 27.9073C221.934 26.6234 217.21 25.4968 210.856 25.3903C204.502 25.2839 198.923 26.2388 198.397 27.5211C197.869 28.805 202.595 29.9316 208.949 30.0381Z" fill="#D22A1F"/>
<path d="M237.805 31.3013C246.277 31.4427 253.715 30.1715 254.419 28.4602C255.121 26.7489 248.823 25.2473 240.349 25.1043C231.876 24.9629 224.438 26.2357 223.736 27.9454C223.034 29.6567 229.332 31.1599 237.805 31.3013Z" fill="#D22A1F"/>
<path d="M276.278 32.9856C287.576 33.1747 297.493 31.4777 298.429 29.1959C299.366 26.9142 290.967 24.9105 279.669 24.7214C268.372 24.5323 258.455 26.2293 257.518 28.5111C256.583 30.7928 264.981 32.7965 276.278 32.9856Z" fill="#D22A1F"/>
<path d="M363.15 31.172L359.982 22.514C359.826 22.13 359.664 21.674 359.496 21.146C359.328 20.618 359.16 20.048 358.992 19.436C358.836 20.048 358.674 20.624 358.506 21.164C358.338 21.692 358.176 22.154 358.02 22.55L354.87 31.172H363.15ZM371.7 41H367.956C367.536 41 367.194 40.898 366.93 40.694C366.666 40.478 366.468 40.214 366.336 39.902L364.392 34.592H353.61L351.666 39.902C351.57 40.178 351.384 40.43 351.108 40.658C350.832 40.886 350.49 41 350.082 41H346.302L356.544 14.972H361.476L371.7 41ZM384.132 37.22C385.032 37.22 385.788 37.112 386.4 36.896C387.012 36.68 387.498 36.392 387.858 36.032C388.23 35.672 388.494 35.252 388.65 34.772C388.818 34.292 388.902 33.782 388.902 33.242C388.902 32.678 388.812 32.174 388.632 31.73C388.452 31.274 388.17 30.89 387.786 30.578C387.402 30.254 386.904 30.008 386.292 29.84C385.692 29.672 384.966 29.588 384.114 29.588H379.236V37.22H384.132ZM379.236 18.716V26.24H383.088C384.744 26.24 385.992 25.94 386.832 25.34C387.684 24.74 388.11 23.786 388.11 22.478C388.11 21.122 387.726 20.156 386.958 19.58C386.19 19.004 384.99 18.716 383.358 18.716H379.236ZM383.358 14.972C385.062 14.972 386.52 15.134 387.732 15.458C388.944 15.782 389.934 16.244 390.702 16.844C391.482 17.444 392.052 18.17 392.412 19.022C392.772 19.874 392.952 20.834 392.952 21.902C392.952 22.514 392.862 23.102 392.682 23.666C392.502 24.218 392.22 24.74 391.836 25.232C391.464 25.712 390.984 26.15 390.396 26.546C389.82 26.942 389.13 27.278 388.326 27.554C391.902 28.358 393.69 30.29 393.69 33.35C393.69 34.454 393.48 35.474 393.06 36.41C392.64 37.346 392.028 38.156 391.224 38.84C390.42 39.512 389.43 40.04 388.254 40.424C387.078 40.808 385.734 41 384.222 41H374.394V14.972H383.358ZM422.911 27.986C422.911 29.894 422.593 31.664 421.957 33.296C421.333 34.916 420.445 36.32 419.293 37.508C418.141 38.696 416.755 39.626 415.135 40.298C413.515 40.958 411.715 41.288 409.735 41.288C407.767 41.288 405.973 40.958 404.353 40.298C402.733 39.626 401.341 38.696 400.177 37.508C399.025 36.32 398.131 34.916 397.495 33.296C396.859 31.664 396.541 29.894 396.541 27.986C396.541 26.078 396.859 24.314 397.495 22.694C398.131 21.062 399.025 19.652 400.177 18.464C401.341 17.276 402.733 16.352 404.353 15.692C405.973 15.02 407.767 14.684 409.735 14.684C411.055 14.684 412.297 14.84 413.461 15.152C414.625 15.452 415.693 15.884 416.665 16.448C417.637 17 418.507 17.678 419.275 18.482C420.055 19.274 420.715 20.162 421.255 21.146C421.795 22.13 422.203 23.198 422.479 24.35C422.767 25.502 422.911 26.714 422.911 27.986ZM417.961 27.986C417.961 26.558 417.769 25.28 417.385 24.152C417.001 23.012 416.455 22.046 415.747 21.254C415.039 20.462 414.175 19.856 413.155 19.436C412.147 19.016 411.007 18.806 409.735 18.806C408.463 18.806 407.317 19.016 406.297 19.436C405.289 19.856 404.425 20.462 403.705 21.254C402.997 22.046 402.451 23.012 402.067 24.152C401.683 25.28 401.491 26.558 401.491 27.986C401.491 29.414 401.683 30.698 402.067 31.838C402.451 32.966 402.997 33.926 403.705 34.718C404.425 35.498 405.289 36.098 406.297 36.518C407.317 36.938 408.463 37.148 409.735 37.148C411.007 37.148 412.147 36.938 413.155 36.518C414.175 36.098 415.039 35.498 415.747 34.718C416.455 33.926 417.001 32.966 417.385 31.838C417.769 30.698 417.961 29.414 417.961 27.986ZM437.64 37.094C438.576 37.094 439.41 36.938 440.142 36.626C440.886 36.314 441.51 35.876 442.014 35.312C442.518 34.748 442.902 34.064 443.166 33.26C443.442 32.456 443.58 31.556 443.58 30.56V14.972H448.422V30.56C448.422 32.108 448.17 33.542 447.666 34.862C447.174 36.17 446.46 37.304 445.524 38.264C444.6 39.212 443.472 39.956 442.14 40.496C440.808 41.024 439.308 41.288 437.64 41.288C435.96 41.288 434.454 41.024 433.122 40.496C431.79 39.956 430.656 39.212 429.72 38.264C428.796 37.304 428.082 36.17 427.578 34.862C427.086 33.542 426.84 32.108 426.84 30.56V14.972H431.682V30.542C431.682 31.538 431.814 32.438 432.078 33.242C432.354 34.046 432.744 34.736 433.248 35.312C433.764 35.876 434.388 36.314 435.12 36.626C435.864 36.938 436.704 37.094 437.64 37.094ZM472.062 18.95H464.214V41H459.372V18.95H451.524V14.972H472.062V18.95ZM493.608 37.094C494.544 37.094 495.378 36.938 496.11 36.626C496.854 36.314 497.478 35.876 497.982 35.312C498.486 34.748 498.87 34.064 499.134 33.26C499.41 32.456 499.548 31.556 499.548 30.56V14.972H504.39V30.56C504.39 32.108 504.138 33.542 503.634 34.862C503.142 36.17 502.428 37.304 501.492 38.264C500.568 39.212 499.44 39.956 498.108 40.496C496.776 41.024 495.276 41.288 493.608 41.288C491.928 41.288 490.422 41.024 489.09 40.496C487.758 39.956 486.624 39.212 485.688 38.264C484.764 37.304 484.05 36.17 483.546 34.862C483.054 33.542 482.808 32.108 482.808 30.56V14.972H487.65V30.542C487.65 31.538 487.782 32.438 488.046 33.242C488.322 34.046 488.712 34.736 489.216 35.312C489.732 35.876 490.356 36.314 491.088 36.626C491.832 36.938 492.672 37.094 493.608 37.094ZM523.711 19.706C523.567 19.958 523.411 20.144 523.243 20.264C523.087 20.372 522.889 20.426 522.649 20.426C522.397 20.426 522.121 20.336 521.821 20.156C521.533 19.964 521.185 19.754 520.777 19.526C520.369 19.298 519.889 19.094 519.337 18.914C518.797 18.722 518.155 18.626 517.411 18.626C516.739 18.626 516.151 18.71 515.647 18.878C515.143 19.034 514.717 19.256 514.369 19.544C514.033 19.832 513.781 20.18 513.613 20.588C513.445 20.984 513.361 21.422 513.361 21.902C513.361 22.514 513.529 23.024 513.865 23.432C514.213 23.84 514.669 24.188 515.233 24.476C515.797 24.764 516.439 25.022 517.159 25.25C517.879 25.478 518.617 25.724 519.373 25.988C520.129 26.24 520.867 26.54 521.587 26.888C522.307 27.224 522.949 27.656 523.513 28.184C524.077 28.7 524.527 29.336 524.863 30.092C525.211 30.848 525.385 31.766 525.385 32.846C525.385 34.022 525.181 35.126 524.773 36.158C524.377 37.178 523.789 38.072 523.009 38.84C522.241 39.596 521.299 40.196 520.183 40.64C519.067 41.072 517.789 41.288 516.349 41.288C515.521 41.288 514.705 41.204 513.901 41.036C513.097 40.88 512.323 40.652 511.579 40.352C510.847 40.052 510.157 39.692 509.509 39.272C508.861 38.852 508.285 38.384 507.781 37.868L509.203 35.546C509.323 35.378 509.479 35.24 509.671 35.132C509.863 35.012 510.067 34.952 510.283 34.952C510.583 34.952 510.907 35.078 511.255 35.33C511.603 35.57 512.017 35.84 512.497 36.14C512.977 36.44 513.535 36.716 514.171 36.968C514.819 37.208 515.593 37.328 516.493 37.328C517.873 37.328 518.941 37.004 519.697 36.356C520.453 35.696 520.831 34.754 520.831 33.53C520.831 32.846 520.657 32.288 520.309 31.856C519.973 31.424 519.523 31.064 518.959 30.776C518.395 30.476 517.753 30.224 517.033 30.02C516.313 29.816 515.581 29.594 514.837 29.354C514.093 29.114 513.361 28.826 512.641 28.49C511.921 28.154 511.279 27.716 510.715 27.176C510.151 26.636 509.695 25.964 509.347 25.16C509.011 24.344 508.843 23.342 508.843 22.154C508.843 21.206 509.029 20.282 509.401 19.382C509.785 18.482 510.337 17.684 511.057 16.988C511.777 16.292 512.665 15.734 513.721 15.314C514.777 14.894 515.989 14.684 517.357 14.684C518.893 14.684 520.309 14.924 521.605 15.404C522.901 15.884 524.005 16.556 524.917 17.42L523.711 19.706Z" fill="#D32616"/>
<path d="M715.096 26.1531C712.416 26.1086 710.063 26.5106 709.84 27.0524C709.618 27.5943 711.612 28.0694 714.292 28.1139C716.973 28.1583 719.326 27.7563 719.549 27.2145C719.77 26.6743 717.777 26.1992 715.096 26.1531Z" fill="#D22A1F"/>
<path d="M702.923 25.6208C699.35 25.5604 696.212 26.0974 695.915 26.8204C695.617 27.5418 698.276 28.1758 701.851 28.2362C705.424 28.2966 708.563 27.7595 708.86 27.0365C709.155 26.3135 706.497 25.6811 702.923 25.6208Z" fill="#D22A1F"/>
<path d="M686.692 24.9105C681.927 24.831 677.742 25.5461 677.348 26.509C676.952 27.4719 680.495 28.3172 685.262 28.3967C690.027 28.4761 694.213 27.7611 694.607 26.7982C695.001 25.8353 691.458 24.9899 686.692 24.9105Z" fill="#D22A1F"/>
<path d="M665.051 23.9619C658.696 23.8554 653.117 24.8104 652.591 26.0927C652.066 27.3766 656.79 28.5031 663.144 28.6096C669.498 28.716 675.077 27.7627 675.604 26.4788C676.132 25.1949 671.405 24.0683 665.051 23.9619Z" fill="#D22A1F"/>
<path d="M636.195 22.6987C627.723 22.5572 620.285 23.83 619.581 25.5413C618.878 27.2526 625.177 28.7558 633.651 28.8972C642.123 29.0386 649.561 27.7675 650.264 26.0561C650.966 24.3432 644.667 22.8417 636.195 22.6987Z" fill="#D22A1F"/>
<path d="M597.722 21.0144C586.424 20.8253 576.507 22.5223 575.571 24.804C574.634 27.0858 583.033 29.0895 594.329 29.2786C605.627 29.4677 615.543 27.7706 616.481 25.4889C617.417 23.2071 609.017 21.2051 597.722 21.0144Z" fill="#D22A1F"/>
<path d="M729.859 27.8469C732.54 27.8914 734.893 27.4894 735.116 26.9475C735.338 26.4057 733.344 25.9306 730.663 25.8861C727.983 25.8416 725.63 26.2436 725.407 26.7855C725.185 27.3273 727.179 27.8024 729.859 27.8469Z" fill="#D22A1F"/>
<path d="M742.032 28.3808C745.606 28.4411 748.744 27.9041 749.041 27.1811C749.338 26.4597 746.68 25.8257 743.105 25.7653C739.531 25.705 736.393 26.242 736.096 26.965C735.8 27.6864 738.459 28.3204 742.032 28.3808Z" fill="#D22A1F"/>
<path d="M758.264 29.0911C763.029 29.1705 767.214 28.4555 767.608 27.4925C768.004 26.5296 764.461 25.6843 759.694 25.6049C754.928 25.5254 750.743 26.2405 750.349 27.2034C749.955 28.1663 753.498 29.0116 758.264 29.0911Z" fill="#D22A1F"/>
<path d="M779.905 30.0381C786.259 30.1445 791.838 29.1895 792.364 27.9073C792.89 26.6234 788.166 25.4968 781.812 25.3903C775.458 25.2839 769.879 26.2388 769.353 27.5211C768.825 28.805 773.551 29.9316 779.905 30.0381Z" fill="#D22A1F"/>
<path d="M808.761 31.3013C817.233 31.4427 824.671 30.1715 825.375 28.4602C826.077 26.7489 819.779 25.2473 811.305 25.1043C802.832 24.9629 795.394 26.2357 794.692 27.9454C793.99 29.6567 800.288 31.1599 808.761 31.3013Z" fill="#D22A1F"/>
<path d="M847.234 32.9856C858.532 33.1747 868.449 31.4777 869.385 29.1959C870.322 26.9142 861.923 24.9105 850.625 24.7214C839.328 24.5323 829.411 26.2293 828.474 28.5111C827.539 30.7928 835.937 32.7965 847.234 32.9856Z" fill="#D22A1F"/>
</g>
<defs>
<filter id="filter0_d_65_2537" x="0.543945" y="0" width="872.912" height="62" filterUnits="userSpaceOnUse" color-interpolation-filters="sRGB">
<feFlood flood-opacity="0" result="BackgroundImageFix"/>
<feColorMatrix in="SourceAlpha" type="matrix" values="0 0 0 0 0 0 0 0 0 0 0 0 0 0 0 0 0 0 127 0" result="hardAlpha"/>
<feOffset dy="4"/>
<feGaussianBlur stdDeviation="2"/>
<feComposite in2="hardAlpha" operator="out"/>
<feColorMatrix type="matrix" values="0 0 0 0 0 0 0 0 0 0 0 0 0 0 0 0 0 0 0.25 0"/>
<feBlend mode="normal" in2="BackgroundImageFix" result="effect1_dropShadow_65_2537"/>
<feBlend mode="normal" in="SourceGraphic" in2="effect1_dropShadow_65_2537" result="shape"/>
</filter>
</defs>
</svg>
