<svg width="928" height="54" viewBox="0 0 928 54" fill="none" xmlns="http://www.w3.org/2000/svg">
<g filter="url(#filter0_d_50_2403)">
<path d="M144.14 26.153C141.46 26.1085 139.107 26.5105 138.884 27.0524C138.662 27.5942 140.656 28.0693 143.336 28.1138C146.017 28.1583 148.37 27.7563 148.593 27.2144C148.814 26.6742 146.821 26.1991 144.14 26.153Z" fill="#D22A1F"/>
<path d="M131.967 25.6207C128.394 25.5603 125.256 26.0974 124.958 26.8204C124.661 27.5418 127.32 28.1758 130.895 28.2361C134.468 28.2965 137.607 27.7595 137.904 27.0365C138.199 26.3135 135.541 25.6811 131.967 25.6207Z" fill="#D22A1F"/>
<path d="M115.736 24.9104C110.971 24.831 106.785 25.5461 106.391 26.509C105.996 27.4719 109.539 28.3172 114.306 28.3966C119.071 28.4761 123.257 27.761 123.651 26.7981C124.045 25.8352 120.501 24.9899 115.736 24.9104Z" fill="#D22A1F"/>
<path d="M94.0945 23.9618C87.7402 23.8554 82.1614 24.8103 81.6354 26.0926C81.1095 27.3765 85.8334 28.5031 92.1877 28.6096C98.5419 28.716 104.121 27.7626 104.648 26.4788C105.176 25.1949 100.449 24.0683 94.0945 23.9618Z" fill="#D22A1F"/>
<path d="M65.2389 22.6986C56.7666 22.5572 49.3287 23.8299 48.6248 25.5413C47.9224 27.2526 54.221 28.7557 62.695 28.8971C71.1673 29.0386 78.6053 27.7674 79.3076 26.0561C80.0099 24.3432 73.7113 22.8416 65.2389 22.6986Z" fill="#D22A1F"/>
<path d="M26.7655 21.0144C15.468 20.8253 5.55131 22.5223 4.61541 24.804C3.67792 27.0858 12.0772 29.0895 23.3731 29.2786C34.6707 29.4677 44.5873 27.7706 45.5248 25.4889C46.4607 23.2071 38.0615 21.2051 26.7655 21.0144Z" fill="#D22A1F"/>
<path d="M158.903 27.8468C161.584 27.8913 163.937 27.4893 164.16 26.9475C164.382 26.4057 162.388 25.9305 159.707 25.8861C157.027 25.8416 154.674 26.2436 154.451 26.7854C154.229 27.3273 156.223 27.8024 158.903 27.8468Z" fill="#D22A1F"/>
<path d="M171.076 28.3808C174.65 28.4412 177.788 27.9041 178.085 27.1811C178.383 26.4597 175.724 25.8258 172.149 25.7654C168.575 25.705 165.437 26.242 165.14 26.965C164.845 27.6864 167.503 28.3204 171.076 28.3808Z" fill="#D22A1F"/>
<path d="M187.308 29.0911C192.073 29.1705 196.258 28.4555 196.652 27.4926C197.048 26.5297 193.505 25.6844 188.738 25.6049C183.973 25.5255 179.787 26.2405 179.393 27.2034C178.999 28.1663 182.542 29.0116 187.308 29.0911Z" fill="#D22A1F"/>
<path d="M208.949 30.038C215.304 30.1445 220.882 29.1895 221.408 27.9072C221.934 26.6233 217.21 25.4968 210.856 25.3903C204.502 25.2838 198.923 26.2388 198.397 27.5211C197.87 28.805 202.595 29.9316 208.949 30.038Z" fill="#D22A1F"/>
<path d="M237.805 31.3013C246.277 31.4427 253.715 30.1716 254.419 28.4602C255.121 26.7489 248.823 25.2474 240.349 25.1044C231.876 24.9629 224.439 26.2357 223.736 27.9454C223.034 29.6567 229.333 31.1599 237.805 31.3013Z" fill="#D22A1F"/>
<path d="M276.278 32.9856C287.576 33.1747 297.493 31.4777 298.429 29.1959C299.366 26.9142 290.967 24.9105 279.669 24.7214C268.372 24.5323 258.455 26.2293 257.518 28.5111C256.583 30.7928 264.981 32.7965 276.278 32.9856Z" fill="#D22A1F"/>
<path d="M359.136 37.22C360.036 37.22 360.792 37.112 361.404 36.896C362.016 36.68 362.502 36.392 362.862 36.032C363.234 35.672 363.498 35.252 363.654 34.772C363.822 34.292 363.906 33.782 363.906 33.242C363.906 32.678 363.816 32.174 363.636 31.73C363.456 31.274 363.174 30.89 362.79 30.578C362.406 30.254 361.908 30.008 361.296 29.84C360.696 29.672 359.97 29.588 359.118 29.588H354.24V37.22H359.136ZM354.24 18.716V26.24H358.092C359.748 26.24 360.996 25.94 361.836 25.34C362.688 24.74 363.114 23.786 363.114 22.478C363.114 21.122 362.73 20.156 361.962 19.58C361.194 19.004 359.994 18.716 358.362 18.716H354.24ZM358.362 14.972C360.066 14.972 361.524 15.134 362.736 15.458C363.948 15.782 364.938 16.244 365.706 16.844C366.486 17.444 367.056 18.17 367.416 19.022C367.776 19.874 367.956 20.834 367.956 21.902C367.956 22.514 367.866 23.102 367.686 23.666C367.506 24.218 367.224 24.74 366.84 25.232C366.468 25.712 365.988 26.15 365.4 26.546C364.824 26.942 364.134 27.278 363.33 27.554C366.906 28.358 368.694 30.29 368.694 33.35C368.694 34.454 368.484 35.474 368.064 36.41C367.644 37.346 367.032 38.156 366.228 38.84C365.424 39.512 364.434 40.04 363.258 40.424C362.082 40.808 360.738 41 359.226 41H349.398V14.972H358.362ZM377.953 18.824V26.042H387.061V29.768H377.953V37.13H389.509V41H373.093V14.972H389.509V18.824H377.953ZM407.66 19.706C407.516 19.958 407.36 20.144 407.192 20.264C407.036 20.372 406.838 20.426 406.598 20.426C406.346 20.426 406.07 20.336 405.77 20.156C405.482 19.964 405.134 19.754 404.726 19.526C404.318 19.298 403.838 19.094 403.286 18.914C402.746 18.722 402.104 18.626 401.36 18.626C400.688 18.626 400.1 18.71 399.596 18.878C399.092 19.034 398.666 19.256 398.318 19.544C397.982 19.832 397.73 20.18 397.562 20.588C397.394 20.984 397.31 21.422 397.31 21.902C397.31 22.514 397.478 23.024 397.814 23.432C398.162 23.84 398.618 24.188 399.182 24.476C399.746 24.764 400.388 25.022 401.108 25.25C401.828 25.478 402.566 25.724 403.322 25.988C404.078 26.24 404.816 26.54 405.536 26.888C406.256 27.224 406.898 27.656 407.462 28.184C408.026 28.7 408.476 29.336 408.812 30.092C409.16 30.848 409.334 31.766 409.334 32.846C409.334 34.022 409.13 35.126 408.722 36.158C408.326 37.178 407.738 38.072 406.958 38.84C406.19 39.596 405.248 40.196 404.132 40.64C403.016 41.072 401.738 41.288 400.298 41.288C399.47 41.288 398.654 41.204 397.85 41.036C397.046 40.88 396.272 40.652 395.528 40.352C394.796 40.052 394.106 39.692 393.458 39.272C392.81 38.852 392.234 38.384 391.73 37.868L393.152 35.546C393.272 35.378 393.428 35.24 393.62 35.132C393.812 35.012 394.016 34.952 394.232 34.952C394.532 34.952 394.856 35.078 395.204 35.33C395.552 35.57 395.966 35.84 396.446 36.14C396.926 36.44 397.484 36.716 398.12 36.968C398.768 37.208 399.542 37.328 400.442 37.328C401.822 37.328 402.89 37.004 403.646 36.356C404.402 35.696 404.78 34.754 404.78 33.53C404.78 32.846 404.606 32.288 404.258 31.856C403.922 31.424 403.472 31.064 402.908 30.776C402.344 30.476 401.702 30.224 400.982 30.02C400.262 29.816 399.53 29.594 398.786 29.354C398.042 29.114 397.31 28.826 396.59 28.49C395.87 28.154 395.228 27.716 394.664 27.176C394.1 26.636 393.644 25.964 393.296 25.16C392.96 24.344 392.792 23.342 392.792 22.154C392.792 21.206 392.978 20.282 393.35 19.382C393.734 18.482 394.286 17.684 395.006 16.988C395.726 16.292 396.614 15.734 397.67 15.314C398.726 14.894 399.938 14.684 401.306 14.684C402.842 14.684 404.258 14.924 405.554 15.404C406.85 15.884 407.954 16.556 408.866 17.42L407.66 19.706ZM431.738 18.95H423.89V41H419.048V18.95H411.2V14.972H431.738V18.95ZM456.668 19.706C456.524 19.958 456.368 20.144 456.2 20.264C456.044 20.372 455.846 20.426 455.606 20.426C455.354 20.426 455.078 20.336 454.778 20.156C454.49 19.964 454.142 19.754 453.734 19.526C453.326 19.298 452.846 19.094 452.294 18.914C451.754 18.722 451.112 18.626 450.368 18.626C449.696 18.626 449.108 18.71 448.604 18.878C448.1 19.034 447.674 19.256 447.326 19.544C446.99 19.832 446.738 20.18 446.57 20.588C446.402 20.984 446.318 21.422 446.318 21.902C446.318 22.514 446.486 23.024 446.822 23.432C447.17 23.84 447.626 24.188 448.19 24.476C448.754 24.764 449.396 25.022 450.116 25.25C450.836 25.478 451.574 25.724 452.33 25.988C453.086 26.24 453.824 26.54 454.544 26.888C455.264 27.224 455.906 27.656 456.47 28.184C457.034 28.7 457.484 29.336 457.82 30.092C458.168 30.848 458.342 31.766 458.342 32.846C458.342 34.022 458.138 35.126 457.73 36.158C457.334 37.178 456.746 38.072 455.966 38.84C455.198 39.596 454.256 40.196 453.14 40.64C452.024 41.072 450.746 41.288 449.306 41.288C448.478 41.288 447.662 41.204 446.858 41.036C446.054 40.88 445.28 40.652 444.536 40.352C443.804 40.052 443.114 39.692 442.466 39.272C441.818 38.852 441.242 38.384 440.738 37.868L442.16 35.546C442.28 35.378 442.436 35.24 442.628 35.132C442.82 35.012 443.024 34.952 443.24 34.952C443.54 34.952 443.864 35.078 444.212 35.33C444.56 35.57 444.974 35.84 445.454 36.14C445.934 36.44 446.492 36.716 447.128 36.968C447.776 37.208 448.55 37.328 449.45 37.328C450.83 37.328 451.898 37.004 452.654 36.356C453.41 35.696 453.788 34.754 453.788 33.53C453.788 32.846 453.614 32.288 453.266 31.856C452.93 31.424 452.48 31.064 451.916 30.776C451.352 30.476 450.71 30.224 449.99 30.02C449.27 29.816 448.538 29.594 447.794 29.354C447.05 29.114 446.318 28.826 445.598 28.49C444.878 28.154 444.236 27.716 443.672 27.176C443.108 26.636 442.652 25.964 442.304 25.16C441.968 24.344 441.8 23.342 441.8 22.154C441.8 21.206 441.986 20.282 442.358 19.382C442.742 18.482 443.294 17.684 444.014 16.988C444.734 16.292 445.622 15.734 446.678 15.314C447.734 14.894 448.946 14.684 450.314 14.684C451.85 14.684 453.266 14.924 454.562 15.404C455.858 15.884 456.962 16.556 457.874 17.42L456.668 19.706ZM467.426 18.824V26.042H476.534V29.768H467.426V37.13H478.982V41H462.566V14.972H478.982V18.824H467.426ZM498.519 37.004V41H483.273V14.972H488.115V37.004H498.519ZM517.222 37.004V41H501.976V14.972H506.818V37.004H517.222ZM525.539 18.824V26.042H534.647V29.768H525.539V37.13H537.095V41H520.679V14.972H537.095V18.824H525.539ZM549.252 27.356C550.164 27.356 550.956 27.242 551.628 27.014C552.312 26.786 552.87 26.474 553.302 26.078C553.746 25.67 554.076 25.19 554.292 24.638C554.508 24.086 554.616 23.48 554.616 22.82C554.616 21.5 554.178 20.486 553.302 19.778C552.438 19.07 551.112 18.716 549.324 18.716H546.228V27.356H549.252ZM561.708 41H557.334C556.506 41 555.906 40.676 555.534 40.028L550.062 31.694C549.858 31.382 549.63 31.16 549.378 31.028C549.138 30.896 548.778 30.83 548.298 30.83H546.228V41H541.386V14.972H549.324C551.088 14.972 552.6 15.158 553.86 15.53C555.132 15.89 556.17 16.4 556.974 17.06C557.79 17.72 558.39 18.512 558.774 19.436C559.158 20.348 559.35 21.356 559.35 22.46C559.35 23.336 559.218 24.164 558.954 24.944C558.702 25.724 558.33 26.432 557.838 27.068C557.358 27.704 556.758 28.262 556.038 28.742C555.33 29.222 554.52 29.6 553.608 29.876C553.92 30.056 554.208 30.272 554.472 30.524C554.736 30.764 554.976 31.052 555.192 31.388L561.708 41ZM578.379 19.706C578.235 19.958 578.079 20.144 577.911 20.264C577.755 20.372 577.557 20.426 577.317 20.426C577.065 20.426 576.789 20.336 576.489 20.156C576.201 19.964 575.853 19.754 575.445 19.526C575.037 19.298 574.557 19.094 574.005 18.914C573.465 18.722 572.823 18.626 572.079 18.626C571.407 18.626 570.819 18.71 570.315 18.878C569.811 19.034 569.385 19.256 569.037 19.544C568.701 19.832 568.449 20.18 568.281 20.588C568.113 20.984 568.029 21.422 568.029 21.902C568.029 22.514 568.197 23.024 568.533 23.432C568.881 23.84 569.337 24.188 569.901 24.476C570.465 24.764 571.107 25.022 571.827 25.25C572.547 25.478 573.285 25.724 574.041 25.988C574.797 26.24 575.535 26.54 576.255 26.888C576.975 27.224 577.617 27.656 578.181 28.184C578.745 28.7 579.195 29.336 579.531 30.092C579.879 30.848 580.053 31.766 580.053 32.846C580.053 34.022 579.849 35.126 579.441 36.158C579.045 37.178 578.457 38.072 577.677 38.84C576.909 39.596 575.967 40.196 574.851 40.64C573.735 41.072 572.457 41.288 571.017 41.288C570.189 41.288 569.373 41.204 568.569 41.036C567.765 40.88 566.991 40.652 566.247 40.352C565.515 40.052 564.825 39.692 564.177 39.272C563.529 38.852 562.953 38.384 562.449 37.868L563.871 35.546C563.991 35.378 564.147 35.24 564.339 35.132C564.531 35.012 564.735 34.952 564.951 34.952C565.251 34.952 565.575 35.078 565.923 35.33C566.271 35.57 566.685 35.84 567.165 36.14C567.645 36.44 568.203 36.716 568.839 36.968C569.487 37.208 570.261 37.328 571.161 37.328C572.541 37.328 573.609 37.004 574.365 36.356C575.121 35.696 575.499 34.754 575.499 33.53C575.499 32.846 575.325 32.288 574.977 31.856C574.641 31.424 574.191 31.064 573.627 30.776C573.063 30.476 572.421 30.224 571.701 30.02C570.981 29.816 570.249 29.594 569.505 29.354C568.761 29.114 568.029 28.826 567.309 28.49C566.589 28.154 565.947 27.716 565.383 27.176C564.819 26.636 564.363 25.964 564.015 25.16C563.679 24.344 563.511 23.342 563.511 22.154C563.511 21.206 563.697 20.282 564.069 19.382C564.453 18.482 565.005 17.684 565.725 16.988C566.445 16.292 567.333 15.734 568.389 15.314C569.445 14.894 570.657 14.684 572.025 14.684C573.561 14.684 574.977 14.924 576.273 15.404C577.569 15.884 578.673 16.556 579.585 17.42L578.379 19.706Z" fill="#D32616"/>
<path d="M769.096 26.153C766.416 26.1085 764.063 26.5105 763.84 27.0524C763.618 27.5942 765.612 28.0693 768.292 28.1138C770.973 28.1583 773.326 27.7563 773.549 27.2144C773.77 26.6742 771.777 26.1991 769.096 26.153Z" fill="#D22A1F"/>
<path d="M756.923 25.6207C753.35 25.5603 750.212 26.0974 749.914 26.8204C749.617 27.5418 752.276 28.1758 755.851 28.2361C759.424 28.2965 762.563 27.7595 762.86 27.0365C763.155 26.3135 760.497 25.6811 756.923 25.6207Z" fill="#D22A1F"/>
<path d="M740.692 24.9104C735.927 24.831 731.742 25.5461 731.347 26.509C730.952 27.4719 734.495 28.3172 739.262 28.3966C744.027 28.4761 748.213 27.761 748.607 26.7981C749.001 25.8352 745.457 24.9899 740.692 24.9104Z" fill="#D22A1F"/>
<path d="M719.051 23.9618C712.696 23.8554 707.117 24.8103 706.591 26.0926C706.066 27.3765 710.789 28.5031 717.144 28.6096C723.498 28.716 729.077 27.7626 729.604 26.4788C730.132 25.1949 725.405 24.0683 719.051 23.9618Z" fill="#D22A1F"/>
<path d="M690.195 22.6986C681.723 22.5572 674.285 23.8299 673.581 25.5413C672.878 27.2526 679.177 28.7557 687.651 28.8971C696.123 29.0386 703.561 27.7674 704.264 26.0561C704.966 24.3432 698.667 22.8416 690.195 22.6986Z" fill="#D22A1F"/>
<path d="M651.722 21.0144C640.424 20.8253 630.507 22.5223 629.571 24.804C628.634 27.0858 637.033 29.0895 648.329 29.2786C659.627 29.4677 669.543 27.7706 670.481 25.4889C671.417 23.2071 663.018 21.2051 651.722 21.0144Z" fill="#D22A1F"/>
<path d="M783.86 27.8468C786.54 27.8913 788.893 27.4893 789.116 26.9475C789.338 26.4057 787.344 25.9305 784.664 25.8861C781.983 25.8416 779.63 26.2436 779.407 26.7854C779.185 27.3273 781.179 27.8024 783.86 27.8468Z" fill="#D22A1F"/>
<path d="M796.033 28.3808C799.606 28.4412 802.744 27.9041 803.041 27.1811C803.339 26.4597 800.68 25.8258 797.105 25.7654C793.531 25.705 790.393 26.242 790.096 26.965C789.801 27.6864 792.459 28.3204 796.033 28.3808Z" fill="#D22A1F"/>
<path d="M812.264 29.0911C817.029 29.1705 821.214 28.4555 821.608 27.4926C822.004 26.5297 818.461 25.6844 813.694 25.6049C808.929 25.5255 804.743 26.2405 804.349 27.2034C803.955 28.1663 807.499 29.0116 812.264 29.0911Z" fill="#D22A1F"/>
<path d="M833.905 30.038C840.26 30.1445 845.839 29.1895 846.364 27.9072C846.89 26.6233 842.166 25.4968 835.812 25.3903C829.458 25.2838 823.879 26.2388 823.353 27.5211C822.826 28.805 827.551 29.9316 833.905 30.038Z" fill="#D22A1F"/>
<path d="M862.761 31.3013C871.233 31.4427 878.671 30.1716 879.375 28.4602C880.077 26.7489 873.779 25.2474 865.305 25.1044C856.833 24.9629 849.395 26.2357 848.692 27.9454C847.99 29.6567 854.289 31.1599 862.761 31.3013Z" fill="#D22A1F"/>
<path d="M901.235 32.9856C912.532 33.1747 922.449 31.4777 923.385 29.1959C924.322 26.9142 915.923 24.9105 904.625 24.7214C893.328 24.5323 883.411 26.2293 882.474 28.5111C881.539 30.7928 889.937 32.7965 901.235 32.9856Z" fill="#D22A1F"/>
</g>
<defs>
<filter id="filter0_d_50_2403" x="0.543976" y="0" width="926.912" height="62" filterUnits="userSpaceOnUse" color-interpolation-filters="sRGB">
<feFlood flood-opacity="0" result="BackgroundImageFix"/>
<feColorMatrix in="SourceAlpha" type="matrix" values="0 0 0 0 0 0 0 0 0 0 0 0 0 0 0 0 0 0 127 0" result="hardAlpha"/>
<feOffset dy="4"/>
<feGaussianBlur stdDeviation="2"/>
<feComposite in2="hardAlpha" operator="out"/>
<feColorMatrix type="matrix" values="0 0 0 0 0 0 0 0 0 0 0 0 0 0 0 0 0 0 0.25 0"/>
<feBlend mode="normal" in2="BackgroundImageFix" result="effect1_dropShadow_50_2403"/>
<feBlend mode="normal" in="SourceGraphic" in2="effect1_dropShadow_50_2403" result="shape"/>
</filter>
</defs>
</svg>
