<svg width="910" height="54" viewBox="0 0 910 54" fill="none" xmlns="http://www.w3.org/2000/svg">
<g filter="url(#filter0_d_95_178)">
<path d="M143.64 26.1531C140.96 26.1086 138.607 26.5106 138.384 27.0524C138.162 27.5943 140.156 28.0694 142.836 28.1139C145.517 28.1583 147.87 27.7563 148.093 27.2145C148.314 26.6743 146.321 26.1992 143.64 26.1531Z" fill="#D22A1F"/>
<path d="M131.467 25.6208C127.894 25.5604 124.755 26.0974 124.458 26.8204C124.161 27.5418 126.819 28.1758 130.395 28.2362C133.968 28.2966 137.106 27.7595 137.403 27.0365C137.699 26.3135 135.041 25.6811 131.467 25.6208Z" fill="#D22A1F"/>
<path d="M115.236 24.9105C110.471 24.831 106.286 25.5461 105.891 26.509C105.496 27.4719 109.039 28.3172 113.806 28.3967C118.571 28.4761 122.757 27.7611 123.151 26.7982C123.545 25.8353 120.001 24.9899 115.236 24.9105Z" fill="#D22A1F"/>
<path d="M93.5943 23.9619C87.24 23.8554 81.6611 24.8104 81.1352 26.0927C80.6093 27.3766 85.3332 28.5031 91.6875 28.6096C98.0417 28.716 103.621 27.7627 104.148 26.4788C104.676 25.1949 99.9485 24.0683 93.5943 23.9619Z" fill="#D22A1F"/>
<path d="M64.7389 22.6987C56.2666 22.5572 48.8287 23.83 48.1248 25.5413C47.4224 27.2526 53.721 28.7558 62.195 28.8972C70.6673 29.0386 78.1053 27.7675 78.8076 26.0561C79.5099 24.3432 73.2113 22.8417 64.7389 22.6987Z" fill="#D22A1F"/>
<path d="M26.2655 21.0144C14.968 20.8253 5.05128 22.5223 4.11538 24.804C3.17789 27.0858 11.5772 29.0895 22.8731 29.2786C34.1706 29.4677 44.0873 27.7706 45.0248 25.4889C45.9607 23.2071 37.5614 21.2051 26.2655 21.0144Z" fill="#D22A1F"/>
<path d="M158.403 27.8469C161.084 27.8914 163.437 27.4894 163.66 26.9475C163.882 26.4057 161.888 25.9306 159.207 25.8861C156.527 25.8416 154.173 26.2436 153.951 26.7855C153.729 27.3273 155.723 27.8024 158.403 27.8469Z" fill="#D22A1F"/>
<path d="M170.576 28.3808C174.15 28.4411 177.288 27.9041 177.585 27.1811C177.883 26.4597 175.224 25.8257 171.649 25.7653C168.075 25.705 164.937 26.242 164.64 26.965C164.345 27.6864 167.003 28.3204 170.576 28.3808Z" fill="#D22A1F"/>
<path d="M186.808 29.0911C191.573 29.1705 195.758 28.4555 196.153 27.4925C196.548 26.5296 193.005 25.6843 188.238 25.6049C183.473 25.5254 179.287 26.2405 178.893 27.2034C178.499 28.1663 182.043 29.0116 186.808 29.0911Z" fill="#D22A1F"/>
<path d="M208.449 30.0381C214.804 30.1445 220.383 29.1895 220.908 27.9073C221.434 26.6234 216.71 25.4968 210.356 25.3903C204.002 25.2839 198.423 26.2388 197.897 27.5211C197.37 28.805 202.095 29.9316 208.449 30.0381Z" fill="#D22A1F"/>
<path d="M237.305 31.3013C245.777 31.4427 253.215 30.1715 253.919 28.4602C254.621 26.7489 248.323 25.2473 239.849 25.1043C231.376 24.9629 223.938 26.2357 223.236 27.9454C222.534 29.6567 228.832 31.1599 237.305 31.3013Z" fill="#D22A1F"/>
<path d="M275.778 32.9856C287.076 33.1747 296.992 31.4777 297.928 29.1959C298.866 26.9142 290.467 24.9105 279.169 24.7214C267.871 24.5323 257.955 26.2293 257.017 28.5111C256.083 30.7928 264.481 32.7965 275.778 32.9856Z" fill="#D22A1F"/>
<path d="M366.772 34.862C367.036 34.862 367.27 34.964 367.474 35.168L369.382 37.238C368.326 38.546 367.024 39.548 365.476 40.244C363.94 40.94 362.092 41.288 359.932 41.288C358 41.288 356.26 40.958 354.712 40.298C353.176 39.638 351.862 38.72 350.77 37.544C349.678 36.368 348.838 34.964 348.25 33.332C347.674 31.7 347.386 29.918 347.386 27.986C347.386 26.03 347.698 24.242 348.322 22.622C348.946 20.99 349.822 19.586 350.95 18.41C352.09 17.234 353.446 16.322 355.018 15.674C356.59 15.014 358.33 14.684 360.238 14.684C362.134 14.684 363.814 14.996 365.278 15.62C366.754 16.244 368.008 17.06 369.04 18.068L367.42 20.318C367.324 20.462 367.198 20.588 367.042 20.696C366.898 20.804 366.694 20.858 366.43 20.858C366.25 20.858 366.064 20.81 365.872 20.714C365.68 20.606 365.47 20.48 365.242 20.336C365.014 20.18 364.75 20.012 364.45 19.832C364.15 19.652 363.802 19.49 363.406 19.346C363.01 19.19 362.548 19.064 362.02 18.968C361.504 18.86 360.904 18.806 360.22 18.806C359.056 18.806 357.988 19.016 357.016 19.436C356.056 19.844 355.228 20.444 354.532 21.236C353.836 22.016 353.296 22.976 352.912 24.116C352.528 25.244 352.336 26.534 352.336 27.986C352.336 29.45 352.54 30.752 352.948 31.892C353.368 33.032 353.932 33.992 354.64 34.772C355.348 35.552 356.182 36.152 357.142 36.572C358.102 36.98 359.134 37.184 360.238 37.184C360.898 37.184 361.492 37.148 362.02 37.076C362.56 37.004 363.052 36.89 363.496 36.734C363.952 36.578 364.378 36.38 364.774 36.14C365.182 35.888 365.584 35.582 365.98 35.222C366.1 35.114 366.226 35.03 366.358 34.97C366.49 34.898 366.628 34.862 366.772 34.862ZM386.451 31.172L383.283 22.514C383.127 22.13 382.965 21.674 382.797 21.146C382.629 20.618 382.461 20.048 382.293 19.436C382.137 20.048 381.975 20.624 381.807 21.164C381.639 21.692 381.477 22.154 381.321 22.55L378.171 31.172H386.451ZM395.001 41H391.257C390.837 41 390.495 40.898 390.231 40.694C389.967 40.478 389.769 40.214 389.637 39.902L387.693 34.592H376.911L374.967 39.902C374.871 40.178 374.685 40.43 374.409 40.658C374.133 40.886 373.791 41 373.383 41H369.603L379.845 14.972H384.777L395.001 41ZM413.344 18.95H405.496V41H400.654V18.95H392.806V14.972H413.344V18.95ZM421.61 18.824V26.042H430.718V29.768H421.61V37.13H433.166V41H416.75V14.972H433.166V18.824H421.61ZM458.35 27.95V38.48C457.03 39.452 455.62 40.166 454.12 40.622C452.632 41.066 451.036 41.288 449.332 41.288C447.208 41.288 445.282 40.958 443.554 40.298C441.838 39.638 440.368 38.72 439.144 37.544C437.932 36.368 436.996 34.964 436.336 33.332C435.676 31.7 435.346 29.918 435.346 27.986C435.346 26.03 435.664 24.236 436.3 22.604C436.936 20.972 437.836 19.568 439 18.392C440.176 17.216 441.598 16.304 443.266 15.656C444.934 15.008 446.806 14.684 448.882 14.684C449.938 14.684 450.922 14.768 451.834 14.936C452.758 15.104 453.61 15.338 454.39 15.638C455.182 15.926 455.902 16.28 456.55 16.7C457.198 17.12 457.792 17.582 458.332 18.086L456.946 20.282C456.73 20.63 456.448 20.846 456.1 20.93C455.752 21.002 455.374 20.912 454.966 20.66C454.57 20.432 454.174 20.204 453.778 19.976C453.382 19.748 452.938 19.55 452.446 19.382C451.966 19.214 451.42 19.076 450.808 18.968C450.208 18.86 449.512 18.806 448.72 18.806C447.436 18.806 446.272 19.022 445.228 19.454C444.196 19.886 443.314 20.504 442.582 21.308C441.85 22.112 441.286 23.078 440.89 24.206C440.494 25.334 440.296 26.594 440.296 27.986C440.296 29.474 440.506 30.806 440.926 31.982C441.358 33.146 441.958 34.136 442.726 34.952C443.506 35.756 444.442 36.374 445.534 36.806C446.626 37.226 447.844 37.436 449.188 37.436C450.148 37.436 451.006 37.334 451.762 37.13C452.518 36.926 453.256 36.65 453.976 36.302V31.586H450.7C450.388 31.586 450.142 31.502 449.962 31.334C449.794 31.154 449.71 30.938 449.71 30.686V27.95H458.35ZM487.837 27.986C487.837 29.894 487.519 31.664 486.883 33.296C486.259 34.916 485.371 36.32 484.219 37.508C483.067 38.696 481.681 39.626 480.061 40.298C478.441 40.958 476.641 41.288 474.661 41.288C472.693 41.288 470.899 40.958 469.279 40.298C467.659 39.626 466.267 38.696 465.103 37.508C463.951 36.32 463.057 34.916 462.421 33.296C461.785 31.664 461.467 29.894 461.467 27.986C461.467 26.078 461.785 24.314 462.421 22.694C463.057 21.062 463.951 19.652 465.103 18.464C466.267 17.276 467.659 16.352 469.279 15.692C470.899 15.02 472.693 14.684 474.661 14.684C475.981 14.684 477.223 14.84 478.387 15.152C479.551 15.452 480.619 15.884 481.591 16.448C482.563 17 483.433 17.678 484.201 18.482C484.981 19.274 485.641 20.162 486.181 21.146C486.721 22.13 487.129 23.198 487.405 24.35C487.693 25.502 487.837 26.714 487.837 27.986ZM482.887 27.986C482.887 26.558 482.695 25.28 482.311 24.152C481.927 23.012 481.381 22.046 480.673 21.254C479.965 20.462 479.101 19.856 478.081 19.436C477.073 19.016 475.933 18.806 474.661 18.806C473.389 18.806 472.243 19.016 471.223 19.436C470.215 19.856 469.351 20.462 468.631 21.254C467.923 22.046 467.377 23.012 466.993 24.152C466.609 25.28 466.417 26.558 466.417 27.986C466.417 29.414 466.609 30.698 466.993 31.838C467.377 32.966 467.923 33.926 468.631 34.718C469.351 35.498 470.215 36.098 471.223 36.518C472.243 36.938 473.389 37.148 474.661 37.148C475.933 37.148 477.073 36.938 478.081 36.518C479.101 36.098 479.965 35.498 480.673 34.718C481.381 33.926 481.927 32.966 482.311 31.838C482.695 30.698 482.887 29.414 482.887 27.986ZM499.955 27.356C500.867 27.356 501.659 27.242 502.331 27.014C503.015 26.786 503.573 26.474 504.005 26.078C504.449 25.67 504.779 25.19 504.995 24.638C505.211 24.086 505.319 23.48 505.319 22.82C505.319 21.5 504.881 20.486 504.005 19.778C503.141 19.07 501.815 18.716 500.027 18.716H496.931V27.356H499.955ZM512.411 41H508.037C507.209 41 506.609 40.676 506.237 40.028L500.765 31.694C500.561 31.382 500.333 31.16 500.081 31.028C499.841 30.896 499.481 30.83 499.001 30.83H496.931V41H492.089V14.972H500.027C501.791 14.972 503.303 15.158 504.563 15.53C505.835 15.89 506.873 16.4 507.677 17.06C508.493 17.72 509.093 18.512 509.477 19.436C509.861 20.348 510.053 21.356 510.053 22.46C510.053 23.336 509.921 24.164 509.657 24.944C509.405 25.724 509.033 26.432 508.541 27.068C508.061 27.704 507.461 28.262 506.741 28.742C506.033 29.222 505.223 29.6 504.311 29.876C504.623 30.056 504.911 30.272 505.175 30.524C505.439 30.764 505.679 31.052 505.895 31.388L512.411 41ZM520.082 41H515.222V14.972H520.082V41ZM530.77 18.824V26.042H539.878V29.768H530.77V37.13H542.326V41H525.91V14.972H542.326V18.824H530.77ZM560.477 19.706C560.333 19.958 560.177 20.144 560.009 20.264C559.853 20.372 559.655 20.426 559.415 20.426C559.163 20.426 558.887 20.336 558.587 20.156C558.299 19.964 557.951 19.754 557.543 19.526C557.135 19.298 556.655 19.094 556.103 18.914C555.563 18.722 554.921 18.626 554.177 18.626C553.505 18.626 552.917 18.71 552.413 18.878C551.909 19.034 551.483 19.256 551.135 19.544C550.799 19.832 550.547 20.18 550.379 20.588C550.211 20.984 550.127 21.422 550.127 21.902C550.127 22.514 550.295 23.024 550.631 23.432C550.979 23.84 551.435 24.188 551.999 24.476C552.563 24.764 553.205 25.022 553.925 25.25C554.645 25.478 555.383 25.724 556.139 25.988C556.895 26.24 557.633 26.54 558.353 26.888C559.073 27.224 559.715 27.656 560.279 28.184C560.843 28.7 561.293 29.336 561.629 30.092C561.977 30.848 562.151 31.766 562.151 32.846C562.151 34.022 561.947 35.126 561.539 36.158C561.143 37.178 560.555 38.072 559.775 38.84C559.007 39.596 558.065 40.196 556.949 40.64C555.833 41.072 554.555 41.288 553.115 41.288C552.287 41.288 551.471 41.204 550.667 41.036C549.863 40.88 549.089 40.652 548.345 40.352C547.613 40.052 546.923 39.692 546.275 39.272C545.627 38.852 545.051 38.384 544.547 37.868L545.969 35.546C546.089 35.378 546.245 35.24 546.437 35.132C546.629 35.012 546.833 34.952 547.049 34.952C547.349 34.952 547.673 35.078 548.021 35.33C548.369 35.57 548.783 35.84 549.263 36.14C549.743 36.44 550.301 36.716 550.937 36.968C551.585 37.208 552.359 37.328 553.259 37.328C554.639 37.328 555.707 37.004 556.463 36.356C557.219 35.696 557.597 34.754 557.597 33.53C557.597 32.846 557.423 32.288 557.075 31.856C556.739 31.424 556.289 31.064 555.725 30.776C555.161 30.476 554.519 30.224 553.799 30.02C553.079 29.816 552.347 29.594 551.603 29.354C550.859 29.114 550.127 28.826 549.407 28.49C548.687 28.154 548.045 27.716 547.481 27.176C546.917 26.636 546.461 25.964 546.113 25.16C545.777 24.344 545.609 23.342 545.609 22.154C545.609 21.206 545.795 20.282 546.167 19.382C546.551 18.482 547.103 17.684 547.823 16.988C548.543 16.292 549.431 15.734 550.487 15.314C551.543 14.894 552.755 14.684 554.123 14.684C555.659 14.684 557.075 14.924 558.371 15.404C559.667 15.884 560.771 16.556 561.683 17.42L560.477 19.706Z" fill="#D32616"/>
<path d="M751.596 26.1531C748.916 26.1086 746.563 26.5106 746.34 27.0524C746.118 27.5943 748.112 28.0694 750.792 28.1139C753.473 28.1583 755.826 27.7563 756.049 27.2145C756.27 26.6743 754.277 26.1992 751.596 26.1531Z" fill="#D22A1F"/>
<path d="M739.423 25.6208C735.85 25.5604 732.711 26.0974 732.414 26.8204C732.117 27.5418 734.776 28.1758 738.351 28.2362C741.924 28.2966 745.062 27.7595 745.36 27.0365C745.655 26.3135 742.997 25.6811 739.423 25.6208Z" fill="#D22A1F"/>
<path d="M723.192 24.9105C718.427 24.831 714.242 25.5461 713.848 26.509C713.452 27.4719 716.995 28.3172 721.762 28.3967C726.527 28.4761 730.713 27.7611 731.107 26.7982C731.501 25.8353 727.958 24.9899 723.192 24.9105Z" fill="#D22A1F"/>
<path d="M701.55 23.9619C695.196 23.8554 689.617 24.8104 689.091 26.0927C688.565 27.3766 693.289 28.5031 699.644 28.6096C705.998 28.716 711.577 27.7627 712.104 26.4788C712.632 25.1949 707.905 24.0683 701.55 23.9619Z" fill="#D22A1F"/>
<path d="M672.695 22.6987C664.223 22.5572 656.785 23.83 656.081 25.5413C655.378 27.2526 661.677 28.7558 670.151 28.8972C678.623 29.0386 686.061 27.7675 686.764 26.0561C687.466 24.3432 681.167 22.8417 672.695 22.6987Z" fill="#D22A1F"/>
<path d="M634.222 21.0144C622.924 20.8253 613.007 22.5223 612.071 24.804C611.134 27.0858 619.533 29.0895 630.829 29.2786C642.127 29.4677 652.043 27.7706 652.981 25.4889C653.917 23.2071 645.517 21.2051 634.222 21.0144Z" fill="#D22A1F"/>
<path d="M766.359 27.8469C769.04 27.8914 771.393 27.4894 771.616 26.9475C771.838 26.4057 769.844 25.9306 767.163 25.8861C764.483 25.8416 762.13 26.2436 761.907 26.7855C761.685 27.3273 763.679 27.8024 766.359 27.8469Z" fill="#D22A1F"/>
<path d="M778.533 28.3808C782.106 28.4411 785.244 27.9041 785.541 27.1811C785.839 26.4597 783.18 25.8257 779.605 25.7653C776.031 25.705 772.893 26.242 772.596 26.965C772.301 27.6864 774.959 28.3204 778.533 28.3808Z" fill="#D22A1F"/>
<path d="M794.764 29.0911C799.529 29.1705 803.714 28.4555 804.109 27.4925C804.504 26.5296 800.961 25.6843 796.194 25.6049C791.429 25.5254 787.243 26.2405 786.849 27.2034C786.455 28.1663 789.999 29.0116 794.764 29.0911Z" fill="#D22A1F"/>
<path d="M816.405 30.0381C822.76 30.1445 828.339 29.1895 828.865 27.9073C829.39 26.6234 824.666 25.4968 818.312 25.3903C811.958 25.2839 806.379 26.2388 805.853 27.5211C805.326 28.805 810.051 29.9316 816.405 30.0381Z" fill="#D22A1F"/>
<path d="M845.261 31.3013C853.733 31.4427 861.171 30.1715 861.875 28.4602C862.577 26.7489 856.279 25.2473 847.805 25.1043C839.332 24.9629 831.894 26.2357 831.192 27.9454C830.49 29.6567 836.788 31.1599 845.261 31.3013Z" fill="#D22A1F"/>
<path d="M883.734 32.9856C895.032 33.1747 904.948 31.4777 905.884 29.1959C906.822 26.9142 898.423 24.9105 887.125 24.7214C875.828 24.5323 865.911 26.2293 864.973 28.5111C864.039 30.7928 872.437 32.7965 883.734 32.9856Z" fill="#D22A1F"/>
</g>
<defs>
<filter id="filter0_d_95_178" x="0.0439453" y="0" width="909.912" height="62" filterUnits="userSpaceOnUse" color-interpolation-filters="sRGB">
<feFlood flood-opacity="0" result="BackgroundImageFix"/>
<feColorMatrix in="SourceAlpha" type="matrix" values="0 0 0 0 0 0 0 0 0 0 0 0 0 0 0 0 0 0 127 0" result="hardAlpha"/>
<feOffset dy="4"/>
<feGaussianBlur stdDeviation="2"/>
<feComposite in2="hardAlpha" operator="out"/>
<feColorMatrix type="matrix" values="0 0 0 0 0 0 0 0 0 0 0 0 0 0 0 0 0 0 0.25 0"/>
<feBlend mode="normal" in2="BackgroundImageFix" result="effect1_dropShadow_95_178"/>
<feBlend mode="normal" in="SourceGraphic" in2="effect1_dropShadow_95_178" result="shape"/>
</filter>
</defs>
</svg>
