<svg width="916" height="54" viewBox="0 0 916 54" fill="none" xmlns="http://www.w3.org/2000/svg">
<g filter="url(#filter0_d_61_2213)">
<path d="M144.14 26.1531C141.46 26.1086 139.107 26.5106 138.884 27.0524C138.662 27.5943 140.656 28.0694 143.336 28.1139C146.017 28.1583 148.37 27.7563 148.593 27.2145C148.814 26.6743 146.821 26.1992 144.14 26.1531Z" fill="#D22A1F"/>
<path d="M131.967 25.6208C128.394 25.5604 125.255 26.0974 124.958 26.8204C124.661 27.5418 127.32 28.1758 130.895 28.2362C134.468 28.2966 137.606 27.7595 137.904 27.0365C138.199 26.3135 135.541 25.6811 131.967 25.6208Z" fill="#D22A1F"/>
<path d="M115.736 24.9105C110.971 24.831 106.785 25.5461 106.391 26.509C105.996 27.4719 109.539 28.3172 114.306 28.3967C119.071 28.4761 123.257 27.7611 123.651 26.7982C124.045 25.8353 120.501 24.9899 115.736 24.9105Z" fill="#D22A1F"/>
<path d="M94.0945 23.9619C87.7402 23.8554 82.1614 24.8104 81.6354 26.0927C81.1095 27.3766 85.8335 28.5031 92.1877 28.6096C98.542 28.716 104.121 27.7627 104.648 26.4788C105.176 25.1949 100.449 24.0683 94.0945 23.9619Z" fill="#D22A1F"/>
<path d="M65.2389 22.6987C56.7666 22.5572 49.3287 23.83 48.6248 25.5413C47.9224 27.2526 54.221 28.7558 62.695 28.8972C71.1673 29.0386 78.6053 27.7675 79.3076 26.0561C80.0099 24.3432 73.7113 22.8417 65.2389 22.6987Z" fill="#D22A1F"/>
<path d="M26.7655 21.0144C15.468 20.8253 5.55128 22.5223 4.61538 24.804C3.67789 27.0858 12.0772 29.0895 23.3731 29.2786C34.6706 29.4677 44.5873 27.7706 45.5248 25.4889C46.4607 23.2071 38.0614 21.2051 26.7655 21.0144Z" fill="#D22A1F"/>
<path d="M158.903 27.8469C161.584 27.8914 163.937 27.4894 164.16 26.9475C164.382 26.4057 162.388 25.9306 159.707 25.8861C157.027 25.8416 154.674 26.2436 154.451 26.7855C154.229 27.3273 156.223 27.8024 158.903 27.8469Z" fill="#D22A1F"/>
<path d="M171.076 28.3808C174.65 28.4411 177.788 27.9041 178.085 27.1811C178.383 26.4597 175.724 25.8257 172.149 25.7653C168.575 25.705 165.437 26.242 165.14 26.965C164.845 27.6864 167.503 28.3204 171.076 28.3808Z" fill="#D22A1F"/>
<path d="M187.308 29.0911C192.073 29.1705 196.258 28.4555 196.652 27.4925C197.048 26.5296 193.505 25.6843 188.738 25.6049C183.972 25.5254 179.787 26.2405 179.393 27.2034C178.999 28.1663 182.542 29.0116 187.308 29.0911Z" fill="#D22A1F"/>
<path d="M208.949 30.0381C215.304 30.1445 220.882 29.1895 221.408 27.9073C221.934 26.6234 217.21 25.4968 210.856 25.3903C204.502 25.2839 198.923 26.2388 198.397 27.5211C197.869 28.805 202.595 29.9316 208.949 30.0381Z" fill="#D22A1F"/>
<path d="M237.805 31.3013C246.277 31.4427 253.715 30.1715 254.419 28.4602C255.121 26.7489 248.823 25.2473 240.349 25.1043C231.876 24.9629 224.439 26.2357 223.736 27.9454C223.034 29.6567 229.333 31.1599 237.805 31.3013Z" fill="#D22A1F"/>
<path d="M276.278 32.9856C287.576 33.1747 297.493 31.4777 298.429 29.1959C299.366 26.9142 290.967 24.9105 279.669 24.7214C268.372 24.5323 258.455 26.2293 257.518 28.5111C256.583 30.7928 264.981 32.7965 276.278 32.9856Z" fill="#D22A1F"/>
<path d="M367.272 34.862C367.536 34.862 367.77 34.964 367.974 35.168L369.882 37.238C368.826 38.546 367.524 39.548 365.976 40.244C364.44 40.94 362.592 41.288 360.432 41.288C358.5 41.288 356.76 40.958 355.212 40.298C353.676 39.638 352.362 38.72 351.27 37.544C350.178 36.368 349.338 34.964 348.75 33.332C348.174 31.7 347.886 29.918 347.886 27.986C347.886 26.03 348.198 24.242 348.822 22.622C349.446 20.99 350.322 19.586 351.45 18.41C352.59 17.234 353.946 16.322 355.518 15.674C357.09 15.014 358.83 14.684 360.738 14.684C362.634 14.684 364.314 14.996 365.778 15.62C367.254 16.244 368.508 17.06 369.54 18.068L367.92 20.318C367.824 20.462 367.698 20.588 367.542 20.696C367.398 20.804 367.194 20.858 366.93 20.858C366.75 20.858 366.564 20.81 366.372 20.714C366.18 20.606 365.97 20.48 365.742 20.336C365.514 20.18 365.25 20.012 364.95 19.832C364.65 19.652 364.302 19.49 363.906 19.346C363.51 19.19 363.048 19.064 362.52 18.968C362.004 18.86 361.404 18.806 360.72 18.806C359.556 18.806 358.488 19.016 357.516 19.436C356.556 19.844 355.728 20.444 355.032 21.236C354.336 22.016 353.796 22.976 353.412 24.116C353.028 25.244 352.836 26.534 352.836 27.986C352.836 29.45 353.04 30.752 353.448 31.892C353.868 33.032 354.432 33.992 355.14 34.772C355.848 35.552 356.682 36.152 357.642 36.572C358.602 36.98 359.634 37.184 360.738 37.184C361.398 37.184 361.992 37.148 362.52 37.076C363.06 37.004 363.552 36.89 363.996 36.734C364.452 36.578 364.878 36.38 365.274 36.14C365.682 35.888 366.084 35.582 366.48 35.222C366.6 35.114 366.726 35.03 366.858 34.97C366.99 34.898 367.128 34.862 367.272 34.862ZM397.458 27.986C397.458 29.894 397.14 31.664 396.504 33.296C395.88 34.916 394.992 36.32 393.84 37.508C392.688 38.696 391.302 39.626 389.682 40.298C388.062 40.958 386.262 41.288 384.282 41.288C382.314 41.288 380.52 40.958 378.9 40.298C377.28 39.626 375.888 38.696 374.724 37.508C373.572 36.32 372.678 34.916 372.042 33.296C371.406 31.664 371.088 29.894 371.088 27.986C371.088 26.078 371.406 24.314 372.042 22.694C372.678 21.062 373.572 19.652 374.724 18.464C375.888 17.276 377.28 16.352 378.9 15.692C380.52 15.02 382.314 14.684 384.282 14.684C385.602 14.684 386.844 14.84 388.008 15.152C389.172 15.452 390.24 15.884 391.212 16.448C392.184 17 393.054 17.678 393.822 18.482C394.602 19.274 395.262 20.162 395.802 21.146C396.342 22.13 396.75 23.198 397.026 24.35C397.314 25.502 397.458 26.714 397.458 27.986ZM392.508 27.986C392.508 26.558 392.316 25.28 391.932 24.152C391.548 23.012 391.002 22.046 390.294 21.254C389.586 20.462 388.722 19.856 387.702 19.436C386.694 19.016 385.554 18.806 384.282 18.806C383.01 18.806 381.864 19.016 380.844 19.436C379.836 19.856 378.972 20.462 378.252 21.254C377.544 22.046 376.998 23.012 376.614 24.152C376.23 25.28 376.038 26.558 376.038 27.986C376.038 29.414 376.23 30.698 376.614 31.838C376.998 32.966 377.544 33.926 378.252 34.718C378.972 35.498 379.836 36.098 380.844 36.518C381.864 36.938 383.01 37.148 384.282 37.148C385.554 37.148 386.694 36.938 387.702 36.518C388.722 36.098 389.586 35.498 390.294 34.718C391.002 33.926 391.548 32.966 391.932 31.838C392.316 30.698 392.508 29.414 392.508 27.986ZM423.653 14.972V41H421.169C420.785 41 420.461 40.94 420.197 40.82C419.945 40.688 419.699 40.472 419.459 40.172L405.869 22.82C405.941 23.612 405.977 24.344 405.977 25.016V41H401.711V14.972H404.249C404.453 14.972 404.627 14.984 404.771 15.008C404.927 15.02 405.059 15.056 405.167 15.116C405.287 15.164 405.401 15.242 405.509 15.35C405.617 15.446 405.737 15.578 405.869 15.746L419.513 33.17C419.477 32.75 419.447 32.336 419.423 31.928C419.399 31.52 419.387 31.142 419.387 30.794V14.972H423.653ZM447.629 18.95H439.781V41H434.939V18.95H427.091V14.972H447.629V18.95ZM462.255 31.172L459.087 22.514C458.931 22.13 458.769 21.674 458.601 21.146C458.433 20.618 458.265 20.048 458.097 19.436C457.941 20.048 457.779 20.624 457.611 21.164C457.443 21.692 457.281 22.154 457.125 22.55L453.975 31.172H462.255ZM470.805 41H467.061C466.641 41 466.299 40.898 466.035 40.694C465.771 40.478 465.573 40.214 465.441 39.902L463.497 34.592H452.715L450.771 39.902C450.675 40.178 450.489 40.43 450.213 40.658C449.937 40.886 449.595 41 449.187 41H445.407L455.649 14.972H460.581L470.805 41ZM490.6 34.862C490.864 34.862 491.098 34.964 491.302 35.168L493.21 37.238C492.154 38.546 490.852 39.548 489.304 40.244C487.768 40.94 485.92 41.288 483.76 41.288C481.828 41.288 480.088 40.958 478.54 40.298C477.004 39.638 475.69 38.72 474.598 37.544C473.506 36.368 472.666 34.964 472.078 33.332C471.502 31.7 471.214 29.918 471.214 27.986C471.214 26.03 471.526 24.242 472.15 22.622C472.774 20.99 473.65 19.586 474.778 18.41C475.918 17.234 477.274 16.322 478.846 15.674C480.418 15.014 482.158 14.684 484.066 14.684C485.962 14.684 487.642 14.996 489.106 15.62C490.582 16.244 491.836 17.06 492.868 18.068L491.248 20.318C491.152 20.462 491.026 20.588 490.87 20.696C490.726 20.804 490.522 20.858 490.258 20.858C490.078 20.858 489.892 20.81 489.7 20.714C489.508 20.606 489.298 20.48 489.07 20.336C488.842 20.18 488.578 20.012 488.278 19.832C487.978 19.652 487.63 19.49 487.234 19.346C486.838 19.19 486.376 19.064 485.848 18.968C485.332 18.86 484.732 18.806 484.048 18.806C482.884 18.806 481.816 19.016 480.844 19.436C479.884 19.844 479.056 20.444 478.36 21.236C477.664 22.016 477.124 22.976 476.74 24.116C476.356 25.244 476.164 26.534 476.164 27.986C476.164 29.45 476.368 30.752 476.776 31.892C477.196 33.032 477.76 33.992 478.468 34.772C479.176 35.552 480.01 36.152 480.97 36.572C481.93 36.98 482.962 37.184 484.066 37.184C484.726 37.184 485.32 37.148 485.848 37.076C486.388 37.004 486.88 36.89 487.324 36.734C487.78 36.578 488.206 36.38 488.602 36.14C489.01 35.888 489.412 35.582 489.808 35.222C489.928 35.114 490.054 35.03 490.186 34.97C490.318 34.898 490.456 34.862 490.6 34.862ZM514.707 18.95H506.859V41H502.017V18.95H494.169V14.972H514.707V18.95ZM536.253 37.094C537.189 37.094 538.023 36.938 538.755 36.626C539.499 36.314 540.123 35.876 540.627 35.312C541.131 34.748 541.515 34.064 541.779 33.26C542.055 32.456 542.193 31.556 542.193 30.56V14.972H547.035V30.56C547.035 32.108 546.783 33.542 546.279 34.862C545.787 36.17 545.073 37.304 544.137 38.264C543.213 39.212 542.085 39.956 540.753 40.496C539.421 41.024 537.921 41.288 536.253 41.288C534.573 41.288 533.067 41.024 531.735 40.496C530.403 39.956 529.269 39.212 528.333 38.264C527.409 37.304 526.695 36.17 526.191 34.862C525.699 33.542 525.453 32.108 525.453 30.56V14.972H530.295V30.542C530.295 31.538 530.427 32.438 530.691 33.242C530.967 34.046 531.357 34.736 531.861 35.312C532.377 35.876 533.001 36.314 533.733 36.626C534.477 36.938 535.317 37.094 536.253 37.094ZM566.356 19.706C566.212 19.958 566.056 20.144 565.888 20.264C565.732 20.372 565.534 20.426 565.294 20.426C565.042 20.426 564.766 20.336 564.466 20.156C564.178 19.964 563.83 19.754 563.422 19.526C563.014 19.298 562.534 19.094 561.982 18.914C561.442 18.722 560.8 18.626 560.056 18.626C559.384 18.626 558.796 18.71 558.292 18.878C557.788 19.034 557.362 19.256 557.014 19.544C556.678 19.832 556.426 20.18 556.258 20.588C556.09 20.984 556.006 21.422 556.006 21.902C556.006 22.514 556.174 23.024 556.51 23.432C556.858 23.84 557.314 24.188 557.878 24.476C558.442 24.764 559.084 25.022 559.804 25.25C560.524 25.478 561.262 25.724 562.018 25.988C562.774 26.24 563.512 26.54 564.232 26.888C564.952 27.224 565.594 27.656 566.158 28.184C566.722 28.7 567.172 29.336 567.508 30.092C567.856 30.848 568.03 31.766 568.03 32.846C568.03 34.022 567.826 35.126 567.418 36.158C567.022 37.178 566.434 38.072 565.654 38.84C564.886 39.596 563.944 40.196 562.828 40.64C561.712 41.072 560.434 41.288 558.994 41.288C558.166 41.288 557.35 41.204 556.546 41.036C555.742 40.88 554.968 40.652 554.224 40.352C553.492 40.052 552.802 39.692 552.154 39.272C551.506 38.852 550.93 38.384 550.426 37.868L551.848 35.546C551.968 35.378 552.124 35.24 552.316 35.132C552.508 35.012 552.712 34.952 552.928 34.952C553.228 34.952 553.552 35.078 553.9 35.33C554.248 35.57 554.662 35.84 555.142 36.14C555.622 36.44 556.18 36.716 556.816 36.968C557.464 37.208 558.238 37.328 559.138 37.328C560.518 37.328 561.586 37.004 562.342 36.356C563.098 35.696 563.476 34.754 563.476 33.53C563.476 32.846 563.302 32.288 562.954 31.856C562.618 31.424 562.168 31.064 561.604 30.776C561.04 30.476 560.398 30.224 559.678 30.02C558.958 29.816 558.226 29.594 557.482 29.354C556.738 29.114 556.006 28.826 555.286 28.49C554.566 28.154 553.924 27.716 553.36 27.176C552.796 26.636 552.34 25.964 551.992 25.16C551.656 24.344 551.488 23.342 551.488 22.154C551.488 21.206 551.674 20.282 552.046 19.382C552.43 18.482 552.982 17.684 553.702 16.988C554.422 16.292 555.31 15.734 556.366 15.314C557.422 14.894 558.634 14.684 560.002 14.684C561.538 14.684 562.954 14.924 564.25 15.404C565.546 15.884 566.65 16.556 567.562 17.42L566.356 19.706Z" fill="#D32616"/>
<path d="M757.096 26.1531C754.416 26.1086 752.063 26.5106 751.84 27.0524C751.618 27.5943 753.612 28.0694 756.292 28.1139C758.973 28.1583 761.326 27.7563 761.549 27.2145C761.77 26.6743 759.777 26.1992 757.096 26.1531Z" fill="#D22A1F"/>
<path d="M744.923 25.6208C741.35 25.5604 738.212 26.0974 737.914 26.8204C737.617 27.5418 740.276 28.1758 743.851 28.2362C747.424 28.2966 750.563 27.7595 750.86 27.0365C751.155 26.3135 748.497 25.6811 744.923 25.6208Z" fill="#D22A1F"/>
<path d="M728.692 24.9105C723.927 24.831 719.741 25.5461 719.347 26.509C718.952 27.4719 722.495 28.3172 727.262 28.3967C732.027 28.4761 736.213 27.7611 736.607 26.7982C737.001 25.8353 733.457 24.9899 728.692 24.9105Z" fill="#D22A1F"/>
<path d="M707.051 23.9619C700.696 23.8554 695.117 24.8104 694.591 26.0927C694.066 27.3766 698.79 28.5031 705.144 28.6096C711.498 28.716 717.077 27.7627 717.604 26.4788C718.132 25.1949 713.405 24.0683 707.051 23.9619Z" fill="#D22A1F"/>
<path d="M678.195 22.6987C669.723 22.5572 662.285 23.83 661.581 25.5413C660.878 27.2526 667.177 28.7558 675.651 28.8972C684.123 29.0386 691.561 27.7675 692.264 26.0561C692.966 24.3432 686.667 22.8417 678.195 22.6987Z" fill="#D22A1F"/>
<path d="M639.722 21.0144C628.424 20.8253 618.507 22.5223 617.571 24.804C616.634 27.0858 625.033 29.0895 636.329 29.2786C647.627 29.4677 657.543 27.7706 658.481 25.4889C659.417 23.2071 651.017 21.2051 639.722 21.0144Z" fill="#D22A1F"/>
<path d="M771.859 27.8469C774.54 27.8914 776.893 27.4894 777.116 26.9475C777.338 26.4057 775.344 25.9306 772.664 25.8861C769.983 25.8416 767.63 26.2436 767.407 26.7855C767.185 27.3273 769.179 27.8024 771.859 27.8469Z" fill="#D22A1F"/>
<path d="M784.033 28.3808C787.606 28.4411 790.744 27.9041 791.041 27.1811C791.339 26.4597 788.68 25.8257 785.105 25.7653C781.531 25.705 778.393 26.242 778.096 26.965C777.801 27.6864 780.459 28.3204 784.033 28.3808Z" fill="#D22A1F"/>
<path d="M800.264 29.0911C805.029 29.1705 809.214 28.4555 809.608 27.4925C810.004 26.5296 806.461 25.6843 801.694 25.6049C796.928 25.5254 792.743 26.2405 792.349 27.2034C791.955 28.1663 795.498 29.0116 800.264 29.0911Z" fill="#D22A1F"/>
<path d="M821.905 30.0381C828.26 30.1445 833.838 29.1895 834.364 27.9073C834.89 26.6234 830.166 25.4968 823.812 25.3903C817.458 25.2839 811.879 26.2388 811.353 27.5211C810.826 28.805 815.551 29.9316 821.905 30.0381Z" fill="#D22A1F"/>
<path d="M850.761 31.3013C859.233 31.4427 866.671 30.1715 867.375 28.4602C868.077 26.7489 861.779 25.2473 853.305 25.1043C844.833 24.9629 837.395 26.2357 836.692 27.9454C835.99 29.6567 842.289 31.1599 850.761 31.3013Z" fill="#D22A1F"/>
<path d="M889.234 32.9856C900.532 33.1747 910.449 31.4777 911.385 29.1959C912.322 26.9142 903.923 24.9105 892.625 24.7214C881.328 24.5323 871.411 26.2293 870.474 28.5111C869.539 30.7928 877.937 32.7965 889.234 32.9856Z" fill="#D22A1F"/>
</g>
<defs>
<filter id="filter0_d_61_2213" x="0.543945" y="0" width="914.912" height="62" filterUnits="userSpaceOnUse" color-interpolation-filters="sRGB">
<feFlood flood-opacity="0" result="BackgroundImageFix"/>
<feColorMatrix in="SourceAlpha" type="matrix" values="0 0 0 0 0 0 0 0 0 0 0 0 0 0 0 0 0 0 127 0" result="hardAlpha"/>
<feOffset dy="4"/>
<feGaussianBlur stdDeviation="2"/>
<feComposite in2="hardAlpha" operator="out"/>
<feColorMatrix type="matrix" values="0 0 0 0 0 0 0 0 0 0 0 0 0 0 0 0 0 0 0.25 0"/>
<feBlend mode="normal" in2="BackgroundImageFix" result="effect1_dropShadow_61_2213"/>
<feBlend mode="normal" in="SourceGraphic" in2="effect1_dropShadow_61_2213" result="shape"/>
</filter>
</defs>
</svg>
