<svg width="886" height="54" viewBox="0 0 886 54" fill="none" xmlns="http://www.w3.org/2000/svg">
<g filter="url(#filter0_d_95_601)">
<path d="M143.64 26.1531C140.96 26.1086 138.607 26.5106 138.384 27.0524C138.162 27.5943 140.156 28.0694 142.836 28.1139C145.517 28.1583 147.87 27.7563 148.093 27.2145C148.314 26.6743 146.321 26.1992 143.64 26.1531Z" fill="#D22A1F"/>
<path d="M131.467 25.6208C127.894 25.5604 124.755 26.0974 124.458 26.8204C124.161 27.5418 126.819 28.1758 130.395 28.2362C133.968 28.2966 137.106 27.7595 137.403 27.0365C137.699 26.3135 135.041 25.6811 131.467 25.6208Z" fill="#D22A1F"/>
<path d="M115.236 24.9105C110.471 24.831 106.286 25.5461 105.891 26.509C105.496 27.4719 109.039 28.3172 113.806 28.3967C118.571 28.4761 122.757 27.7611 123.151 26.7982C123.545 25.8353 120.001 24.9899 115.236 24.9105Z" fill="#D22A1F"/>
<path d="M93.5943 23.9619C87.24 23.8554 81.6611 24.8104 81.1352 26.0927C80.6093 27.3766 85.3332 28.5031 91.6875 28.6096C98.0417 28.716 103.621 27.7627 104.148 26.4788C104.676 25.1949 99.9485 24.0683 93.5943 23.9619Z" fill="#D22A1F"/>
<path d="M64.7389 22.6987C56.2666 22.5572 48.8287 23.83 48.1248 25.5413C47.4224 27.2526 53.721 28.7558 62.195 28.8972C70.6673 29.0386 78.1053 27.7675 78.8076 26.0561C79.5099 24.3432 73.2113 22.8417 64.7389 22.6987Z" fill="#D22A1F"/>
<path d="M26.2655 21.0144C14.968 20.8253 5.05128 22.5223 4.11538 24.804C3.17789 27.0858 11.5772 29.0895 22.8731 29.2786C34.1706 29.4677 44.0873 27.7706 45.0248 25.4889C45.9607 23.2071 37.5614 21.2051 26.2655 21.0144Z" fill="#D22A1F"/>
<path d="M158.403 27.8469C161.084 27.8914 163.437 27.4894 163.66 26.9475C163.882 26.4057 161.888 25.9306 159.207 25.8861C156.527 25.8416 154.173 26.2436 153.951 26.7855C153.729 27.3273 155.723 27.8024 158.403 27.8469Z" fill="#D22A1F"/>
<path d="M170.576 28.3808C174.15 28.4411 177.288 27.9041 177.585 27.1811C177.883 26.4597 175.224 25.8257 171.649 25.7653C168.075 25.705 164.937 26.242 164.64 26.965C164.345 27.6864 167.003 28.3204 170.576 28.3808Z" fill="#D22A1F"/>
<path d="M186.808 29.0911C191.573 29.1705 195.758 28.4555 196.153 27.4925C196.548 26.5296 193.005 25.6843 188.238 25.6049C183.473 25.5254 179.287 26.2405 178.893 27.2034C178.499 28.1663 182.043 29.0116 186.808 29.0911Z" fill="#D22A1F"/>
<path d="M208.449 30.0381C214.804 30.1445 220.383 29.1895 220.908 27.9073C221.434 26.6234 216.71 25.4968 210.356 25.3903C204.002 25.2839 198.423 26.2388 197.897 27.5211C197.37 28.805 202.095 29.9316 208.449 30.0381Z" fill="#D22A1F"/>
<path d="M237.305 31.3013C245.777 31.4427 253.215 30.1715 253.919 28.4602C254.621 26.7489 248.323 25.2473 239.849 25.1043C231.376 24.9629 223.938 26.2357 223.236 27.9454C222.534 29.6567 228.832 31.1599 237.305 31.3013Z" fill="#D22A1F"/>
<path d="M275.778 32.9856C287.076 33.1747 296.992 31.4777 297.928 29.1959C298.866 26.9142 290.467 24.9105 279.169 24.7214C267.871 24.5323 257.955 26.2293 257.017 28.5111C256.083 30.7928 264.481 32.7965 275.778 32.9856Z" fill="#D22A1F"/>
<path d="M357.358 28.058C358.246 28.058 359.02 27.95 359.68 27.734C360.34 27.506 360.886 27.188 361.318 26.78C361.762 26.36 362.092 25.856 362.308 25.268C362.524 24.668 362.632 24.002 362.632 23.27C362.632 22.574 362.524 21.944 362.308 21.38C362.092 20.816 361.768 20.336 361.336 19.94C360.904 19.544 360.358 19.244 359.698 19.04C359.038 18.824 358.258 18.716 357.358 18.716H353.74V28.058H357.358ZM357.358 14.972C359.098 14.972 360.604 15.176 361.876 15.584C363.148 15.992 364.198 16.562 365.026 17.294C365.854 18.026 366.466 18.902 366.862 19.922C367.27 20.942 367.474 22.058 367.474 23.27C367.474 24.53 367.264 25.688 366.844 26.744C366.424 27.788 365.794 28.688 364.954 29.444C364.114 30.2 363.058 30.788 361.786 31.208C360.526 31.628 359.05 31.838 357.358 31.838H353.74V41H348.898V14.972H357.358ZM379.053 27.356C379.965 27.356 380.757 27.242 381.429 27.014C382.113 26.786 382.671 26.474 383.103 26.078C383.547 25.67 383.877 25.19 384.093 24.638C384.309 24.086 384.417 23.48 384.417 22.82C384.417 21.5 383.979 20.486 383.103 19.778C382.239 19.07 380.913 18.716 379.125 18.716H376.029V27.356H379.053ZM391.509 41H387.135C386.307 41 385.707 40.676 385.335 40.028L379.863 31.694C379.659 31.382 379.431 31.16 379.179 31.028C378.939 30.896 378.579 30.83 378.099 30.83H376.029V41H371.187V14.972H379.125C380.889 14.972 382.401 15.158 383.661 15.53C384.933 15.89 385.971 16.4 386.775 17.06C387.591 17.72 388.191 18.512 388.575 19.436C388.959 20.348 389.151 21.356 389.151 22.46C389.151 23.336 389.019 24.164 388.755 24.944C388.503 25.724 388.131 26.432 387.639 27.068C387.159 27.704 386.559 28.262 385.839 28.742C385.131 29.222 384.321 29.6 383.409 29.876C383.721 30.056 384.009 30.272 384.273 30.524C384.537 30.764 384.777 31.052 384.993 31.388L391.509 41ZM418.79 27.986C418.79 29.894 418.472 31.664 417.836 33.296C417.212 34.916 416.324 36.32 415.172 37.508C414.02 38.696 412.634 39.626 411.014 40.298C409.394 40.958 407.594 41.288 405.614 41.288C403.646 41.288 401.852 40.958 400.232 40.298C398.612 39.626 397.22 38.696 396.056 37.508C394.904 36.32 394.01 34.916 393.374 33.296C392.738 31.664 392.42 29.894 392.42 27.986C392.42 26.078 392.738 24.314 393.374 22.694C394.01 21.062 394.904 19.652 396.056 18.464C397.22 17.276 398.612 16.352 400.232 15.692C401.852 15.02 403.646 14.684 405.614 14.684C406.934 14.684 408.176 14.84 409.34 15.152C410.504 15.452 411.572 15.884 412.544 16.448C413.516 17 414.386 17.678 415.154 18.482C415.934 19.274 416.594 20.162 417.134 21.146C417.674 22.13 418.082 23.198 418.358 24.35C418.646 25.502 418.79 26.714 418.79 27.986ZM413.84 27.986C413.84 26.558 413.648 25.28 413.264 24.152C412.88 23.012 412.334 22.046 411.626 21.254C410.918 20.462 410.054 19.856 409.034 19.436C408.026 19.016 406.886 18.806 405.614 18.806C404.342 18.806 403.196 19.016 402.176 19.436C401.168 19.856 400.304 20.462 399.584 21.254C398.876 22.046 398.33 23.012 397.946 24.152C397.562 25.28 397.37 26.558 397.37 27.986C397.37 29.414 397.562 30.698 397.946 31.838C398.33 32.966 398.876 33.926 399.584 34.718C400.304 35.498 401.168 36.098 402.176 36.518C403.196 36.938 404.342 37.148 405.614 37.148C406.886 37.148 408.026 36.938 409.034 36.518C410.054 36.098 410.918 35.498 411.626 34.718C412.334 33.926 412.88 32.966 413.264 31.838C413.648 30.698 413.84 29.414 413.84 27.986ZM446.155 27.986C446.155 29.894 445.837 31.646 445.201 33.242C444.565 34.838 443.671 36.212 442.519 37.364C441.367 38.516 439.981 39.41 438.361 40.046C436.741 40.682 434.941 41 432.961 41H423.043V14.972H432.961C434.941 14.972 436.741 15.296 438.361 15.944C439.981 16.58 441.367 17.474 442.519 18.626C443.671 19.766 444.565 21.134 445.201 22.73C445.837 24.326 446.155 26.078 446.155 27.986ZM441.187 27.986C441.187 26.558 440.995 25.28 440.611 24.152C440.239 23.012 439.693 22.052 438.973 21.272C438.265 20.48 437.401 19.874 436.381 19.454C435.373 19.034 434.233 18.824 432.961 18.824H427.903V37.148H432.961C434.233 37.148 435.373 36.938 436.381 36.518C437.401 36.098 438.265 35.498 438.973 34.718C439.693 33.926 440.239 32.966 440.611 31.838C440.995 30.698 441.187 29.414 441.187 27.986ZM460.905 37.094C461.841 37.094 462.675 36.938 463.407 36.626C464.151 36.314 464.775 35.876 465.279 35.312C465.783 34.748 466.167 34.064 466.431 33.26C466.707 32.456 466.845 31.556 466.845 30.56V14.972H471.687V30.56C471.687 32.108 471.435 33.542 470.931 34.862C470.439 36.17 469.725 37.304 468.789 38.264C467.865 39.212 466.737 39.956 465.405 40.496C464.073 41.024 462.573 41.288 460.905 41.288C459.225 41.288 457.719 41.024 456.387 40.496C455.055 39.956 453.921 39.212 452.985 38.264C452.061 37.304 451.347 36.17 450.843 34.862C450.351 33.542 450.105 32.108 450.105 30.56V14.972H454.947V30.542C454.947 31.538 455.079 32.438 455.343 33.242C455.619 34.046 456.009 34.736 456.513 35.312C457.029 35.876 457.653 36.314 458.385 36.626C459.129 36.938 459.969 37.094 460.905 37.094ZM495.022 34.862C495.286 34.862 495.52 34.964 495.724 35.168L497.632 37.238C496.576 38.546 495.274 39.548 493.726 40.244C492.19 40.94 490.342 41.288 488.182 41.288C486.25 41.288 484.51 40.958 482.962 40.298C481.426 39.638 480.112 38.72 479.02 37.544C477.928 36.368 477.088 34.964 476.5 33.332C475.924 31.7 475.636 29.918 475.636 27.986C475.636 26.03 475.948 24.242 476.572 22.622C477.196 20.99 478.072 19.586 479.2 18.41C480.34 17.234 481.696 16.322 483.268 15.674C484.84 15.014 486.58 14.684 488.488 14.684C490.384 14.684 492.064 14.996 493.528 15.62C495.004 16.244 496.258 17.06 497.29 18.068L495.67 20.318C495.574 20.462 495.448 20.588 495.292 20.696C495.148 20.804 494.944 20.858 494.68 20.858C494.5 20.858 494.314 20.81 494.122 20.714C493.93 20.606 493.72 20.48 493.492 20.336C493.264 20.18 493 20.012 492.7 19.832C492.4 19.652 492.052 19.49 491.656 19.346C491.26 19.19 490.798 19.064 490.27 18.968C489.754 18.86 489.154 18.806 488.47 18.806C487.306 18.806 486.238 19.016 485.266 19.436C484.306 19.844 483.478 20.444 482.782 21.236C482.086 22.016 481.546 22.976 481.162 24.116C480.778 25.244 480.586 26.534 480.586 27.986C480.586 29.45 480.79 30.752 481.198 31.892C481.618 33.032 482.182 33.992 482.89 34.772C483.598 35.552 484.432 36.152 485.392 36.572C486.352 36.98 487.384 37.184 488.488 37.184C489.148 37.184 489.742 37.148 490.27 37.076C490.81 37.004 491.302 36.89 491.746 36.734C492.202 36.578 492.628 36.38 493.024 36.14C493.432 35.888 493.834 35.582 494.23 35.222C494.35 35.114 494.476 35.03 494.608 34.97C494.74 34.898 494.878 34.862 495.022 34.862ZM519.129 18.95H511.281V41H506.439V18.95H498.591V14.972H519.129V18.95ZM536.324 19.706C536.18 19.958 536.024 20.144 535.856 20.264C535.7 20.372 535.502 20.426 535.262 20.426C535.01 20.426 534.734 20.336 534.434 20.156C534.146 19.964 533.798 19.754 533.39 19.526C532.982 19.298 532.502 19.094 531.95 18.914C531.41 18.722 530.768 18.626 530.024 18.626C529.352 18.626 528.764 18.71 528.26 18.878C527.756 19.034 527.33 19.256 526.982 19.544C526.646 19.832 526.394 20.18 526.226 20.588C526.058 20.984 525.974 21.422 525.974 21.902C525.974 22.514 526.142 23.024 526.478 23.432C526.826 23.84 527.282 24.188 527.846 24.476C528.41 24.764 529.052 25.022 529.772 25.25C530.492 25.478 531.23 25.724 531.986 25.988C532.742 26.24 533.48 26.54 534.2 26.888C534.92 27.224 535.562 27.656 536.126 28.184C536.69 28.7 537.14 29.336 537.476 30.092C537.824 30.848 537.998 31.766 537.998 32.846C537.998 34.022 537.794 35.126 537.386 36.158C536.99 37.178 536.402 38.072 535.622 38.84C534.854 39.596 533.912 40.196 532.796 40.64C531.68 41.072 530.402 41.288 528.962 41.288C528.134 41.288 527.318 41.204 526.514 41.036C525.71 40.88 524.936 40.652 524.192 40.352C523.46 40.052 522.77 39.692 522.122 39.272C521.474 38.852 520.898 38.384 520.394 37.868L521.816 35.546C521.936 35.378 522.092 35.24 522.284 35.132C522.476 35.012 522.68 34.952 522.896 34.952C523.196 34.952 523.52 35.078 523.868 35.33C524.216 35.57 524.63 35.84 525.11 36.14C525.59 36.44 526.148 36.716 526.784 36.968C527.432 37.208 528.206 37.328 529.106 37.328C530.486 37.328 531.554 37.004 532.31 36.356C533.066 35.696 533.444 34.754 533.444 33.53C533.444 32.846 533.27 32.288 532.922 31.856C532.586 31.424 532.136 31.064 531.572 30.776C531.008 30.476 530.366 30.224 529.646 30.02C528.926 29.816 528.194 29.594 527.45 29.354C526.706 29.114 525.974 28.826 525.254 28.49C524.534 28.154 523.892 27.716 523.328 27.176C522.764 26.636 522.308 25.964 521.96 25.16C521.624 24.344 521.456 23.342 521.456 22.154C521.456 21.206 521.642 20.282 522.014 19.382C522.398 18.482 522.95 17.684 523.67 16.988C524.39 16.292 525.278 15.734 526.334 15.314C527.39 14.894 528.602 14.684 529.97 14.684C531.506 14.684 532.922 14.924 534.218 15.404C535.514 15.884 536.618 16.556 537.53 17.42L536.324 19.706Z" fill="#D32616"/>
<path d="M727.596 26.1531C724.916 26.1086 722.563 26.5106 722.34 27.0524C722.118 27.5943 724.112 28.0694 726.792 28.1139C729.473 28.1583 731.826 27.7563 732.049 27.2145C732.27 26.6743 730.277 26.1992 727.596 26.1531Z" fill="#D22A1F"/>
<path d="M715.423 25.6208C711.85 25.5604 708.711 26.0974 708.414 26.8204C708.117 27.5418 710.776 28.1758 714.351 28.2362C717.924 28.2966 721.062 27.7595 721.36 27.0365C721.655 26.3135 718.997 25.6811 715.423 25.6208Z" fill="#D22A1F"/>
<path d="M699.192 24.9105C694.427 24.831 690.242 25.5461 689.848 26.509C689.452 27.4719 692.995 28.3172 697.762 28.3967C702.527 28.4761 706.713 27.7611 707.107 26.7982C707.501 25.8353 703.958 24.9899 699.192 24.9105Z" fill="#D22A1F"/>
<path d="M677.55 23.9619C671.196 23.8554 665.617 24.8104 665.091 26.0927C664.565 27.3766 669.289 28.5031 675.644 28.6096C681.998 28.716 687.577 27.7627 688.104 26.4788C688.632 25.1949 683.905 24.0683 677.55 23.9619Z" fill="#D22A1F"/>
<path d="M648.695 22.6987C640.223 22.5572 632.785 23.83 632.081 25.5413C631.378 27.2526 637.677 28.7558 646.151 28.8972C654.623 29.0386 662.061 27.7675 662.764 26.0561C663.466 24.3432 657.167 22.8417 648.695 22.6987Z" fill="#D22A1F"/>
<path d="M610.222 21.0144C598.924 20.8253 589.007 22.5223 588.071 24.804C587.134 27.0858 595.533 29.0895 606.829 29.2786C618.127 29.4677 628.043 27.7706 628.981 25.4889C629.917 23.2071 621.517 21.2051 610.222 21.0144Z" fill="#D22A1F"/>
<path d="M742.359 27.8469C745.04 27.8914 747.393 27.4894 747.616 26.9475C747.838 26.4057 745.844 25.9306 743.163 25.8861C740.483 25.8416 738.13 26.2436 737.907 26.7855C737.685 27.3273 739.679 27.8024 742.359 27.8469Z" fill="#D22A1F"/>
<path d="M754.533 28.3808C758.106 28.4411 761.244 27.9041 761.541 27.1811C761.839 26.4597 759.18 25.8257 755.605 25.7653C752.031 25.705 748.893 26.242 748.596 26.965C748.301 27.6864 750.959 28.3204 754.533 28.3808Z" fill="#D22A1F"/>
<path d="M770.764 29.0911C775.529 29.1705 779.714 28.4555 780.109 27.4925C780.504 26.5296 776.961 25.6843 772.194 25.6049C767.429 25.5254 763.243 26.2405 762.849 27.2034C762.455 28.1663 765.999 29.0116 770.764 29.0911Z" fill="#D22A1F"/>
<path d="M792.405 30.0381C798.76 30.1445 804.339 29.1895 804.865 27.9073C805.39 26.6234 800.666 25.4968 794.312 25.3903C787.958 25.2839 782.379 26.2388 781.853 27.5211C781.326 28.805 786.051 29.9316 792.405 30.0381Z" fill="#D22A1F"/>
<path d="M821.261 31.3013C829.733 31.4427 837.171 30.1715 837.875 28.4602C838.577 26.7489 832.279 25.2473 823.805 25.1043C815.332 24.9629 807.894 26.2357 807.192 27.9454C806.49 29.6567 812.788 31.1599 821.261 31.3013Z" fill="#D22A1F"/>
<path d="M859.734 32.9856C871.032 33.1747 880.948 31.4777 881.884 29.1959C882.822 26.9142 874.423 24.9105 863.125 24.7214C851.828 24.5323 841.911 26.2293 840.973 28.5111C840.039 30.7928 848.437 32.7965 859.734 32.9856Z" fill="#D22A1F"/>
</g>
<defs>
<filter id="filter0_d_95_601" x="0.0439453" y="0" width="885.912" height="62" filterUnits="userSpaceOnUse" color-interpolation-filters="sRGB">
<feFlood flood-opacity="0" result="BackgroundImageFix"/>
<feColorMatrix in="SourceAlpha" type="matrix" values="0 0 0 0 0 0 0 0 0 0 0 0 0 0 0 0 0 0 127 0" result="hardAlpha"/>
<feOffset dy="4"/>
<feGaussianBlur stdDeviation="2"/>
<feComposite in2="hardAlpha" operator="out"/>
<feColorMatrix type="matrix" values="0 0 0 0 0 0 0 0 0 0 0 0 0 0 0 0 0 0 0.25 0"/>
<feBlend mode="normal" in2="BackgroundImageFix" result="effect1_dropShadow_95_601"/>
<feBlend mode="normal" in="SourceGraphic" in2="effect1_dropShadow_95_601" result="shape"/>
</filter>
</defs>
</svg>
