<svg width="1082" height="54" viewBox="0 0 1082 54" fill="none" xmlns="http://www.w3.org/2000/svg">
<g filter="url(#filter0_d_95_494)">
<path d="M143.64 26.1531C140.96 26.1086 138.607 26.5106 138.384 27.0524C138.162 27.5943 140.156 28.0694 142.836 28.1139C145.517 28.1583 147.87 27.7563 148.093 27.2145C148.314 26.6743 146.321 26.1992 143.64 26.1531Z" fill="#D22A1F"/>
<path d="M131.467 25.6208C127.894 25.5604 124.755 26.0974 124.458 26.8204C124.161 27.5418 126.819 28.1758 130.395 28.2362C133.968 28.2966 137.106 27.7595 137.403 27.0365C137.699 26.3135 135.041 25.6811 131.467 25.6208Z" fill="#D22A1F"/>
<path d="M115.236 24.9105C110.471 24.831 106.286 25.5461 105.891 26.509C105.496 27.4719 109.039 28.3172 113.806 28.3967C118.571 28.4761 122.757 27.7611 123.151 26.7982C123.545 25.8353 120.001 24.9899 115.236 24.9105Z" fill="#D22A1F"/>
<path d="M93.5943 23.9619C87.24 23.8554 81.6611 24.8104 81.1352 26.0927C80.6093 27.3766 85.3332 28.5031 91.6875 28.6096C98.0417 28.716 103.621 27.7627 104.148 26.4788C104.676 25.1949 99.9485 24.0683 93.5943 23.9619Z" fill="#D22A1F"/>
<path d="M64.7389 22.6987C56.2666 22.5572 48.8287 23.83 48.1248 25.5413C47.4224 27.2526 53.721 28.7558 62.195 28.8972C70.6673 29.0386 78.1053 27.7675 78.8076 26.0561C79.5099 24.3432 73.2113 22.8417 64.7389 22.6987Z" fill="#D22A1F"/>
<path d="M26.2655 21.0144C14.968 20.8253 5.05128 22.5223 4.11538 24.804C3.17789 27.0858 11.5772 29.0895 22.8731 29.2786C34.1706 29.4677 44.0873 27.7706 45.0248 25.4889C45.9607 23.2071 37.5614 21.2051 26.2655 21.0144Z" fill="#D22A1F"/>
<path d="M158.403 27.8469C161.084 27.8914 163.437 27.4894 163.66 26.9475C163.882 26.4057 161.888 25.9306 159.207 25.8861C156.527 25.8416 154.173 26.2436 153.951 26.7855C153.729 27.3273 155.723 27.8024 158.403 27.8469Z" fill="#D22A1F"/>
<path d="M170.576 28.3808C174.15 28.4411 177.288 27.9041 177.585 27.1811C177.883 26.4597 175.224 25.8257 171.649 25.7653C168.075 25.705 164.937 26.242 164.64 26.965C164.345 27.6864 167.003 28.3204 170.576 28.3808Z" fill="#D22A1F"/>
<path d="M186.808 29.0911C191.573 29.1705 195.758 28.4555 196.153 27.4925C196.548 26.5296 193.005 25.6843 188.238 25.6049C183.473 25.5254 179.287 26.2405 178.893 27.2034C178.499 28.1663 182.043 29.0116 186.808 29.0911Z" fill="#D22A1F"/>
<path d="M208.449 30.0381C214.804 30.1445 220.383 29.1895 220.908 27.9073C221.434 26.6234 216.71 25.4968 210.356 25.3903C204.002 25.2839 198.423 26.2388 197.897 27.5211C197.37 28.805 202.095 29.9316 208.449 30.0381Z" fill="#D22A1F"/>
<path d="M237.305 31.3013C245.777 31.4427 253.215 30.1715 253.919 28.4602C254.621 26.7489 248.323 25.2473 239.849 25.1043C231.376 24.9629 223.938 26.2357 223.236 27.9454C222.534 29.6567 228.832 31.1599 237.305 31.3013Z" fill="#D22A1F"/>
<path d="M275.778 32.9856C287.076 33.1747 296.992 31.4777 297.928 29.1959C298.866 26.9142 290.467 24.9105 279.169 24.7214C267.871 24.5323 257.955 26.2293 257.017 28.5111C256.083 30.7928 264.481 32.7965 275.778 32.9856Z" fill="#D22A1F"/>
<path d="M367.078 18.95H359.23V41H354.388V18.95H346.54V14.972H367.078V18.95ZM375.344 18.824V26.042H384.452V29.768H375.344V37.13H386.9V41H370.484V14.972H386.9V18.824H375.344ZM399.057 27.356C399.969 27.356 400.761 27.242 401.433 27.014C402.117 26.786 402.675 26.474 403.107 26.078C403.551 25.67 403.881 25.19 404.097 24.638C404.313 24.086 404.421 23.48 404.421 22.82C404.421 21.5 403.983 20.486 403.107 19.778C402.243 19.07 400.917 18.716 399.129 18.716H396.033V27.356H399.057ZM411.513 41H407.139C406.311 41 405.711 40.676 405.339 40.028L399.867 31.694C399.663 31.382 399.435 31.16 399.183 31.028C398.943 30.896 398.583 30.83 398.103 30.83H396.033V41H391.191V14.972H399.129C400.893 14.972 402.405 15.158 403.665 15.53C404.937 15.89 405.975 16.4 406.779 17.06C407.595 17.72 408.195 18.512 408.579 19.436C408.963 20.348 409.155 21.356 409.155 22.46C409.155 23.336 409.023 24.164 408.759 24.944C408.507 25.724 408.135 26.432 407.643 27.068C407.163 27.704 406.563 28.262 405.843 28.742C405.135 29.222 404.325 29.6 403.413 29.876C403.725 30.056 404.013 30.272 404.277 30.524C404.541 30.764 404.781 31.052 404.997 31.388L411.513 41ZM442.548 14.972V41H438.282V24.188C438.282 23.516 438.318 22.79 438.39 22.01L430.524 36.788C430.152 37.496 429.582 37.85 428.814 37.85H428.13C427.362 37.85 426.792 37.496 426.42 36.788L418.464 21.956C418.5 22.352 418.53 22.742 418.554 23.126C418.578 23.51 418.59 23.864 418.59 24.188V41H414.324V14.972H417.978C418.194 14.972 418.38 14.978 418.536 14.99C418.692 15.002 418.83 15.032 418.95 15.08C419.082 15.128 419.196 15.206 419.292 15.314C419.4 15.422 419.502 15.566 419.598 15.746L427.392 30.2C427.596 30.584 427.782 30.98 427.95 31.388C428.13 31.796 428.304 32.216 428.472 32.648C428.64 32.204 428.814 31.778 428.994 31.37C429.174 30.95 429.366 30.548 429.57 30.164L437.256 15.746C437.352 15.566 437.454 15.422 437.562 15.314C437.67 15.206 437.784 15.128 437.904 15.08C438.036 15.032 438.18 15.002 438.336 14.99C438.492 14.978 438.678 14.972 438.894 14.972H442.548ZM462.215 19.706C462.071 19.958 461.915 20.144 461.747 20.264C461.591 20.372 461.393 20.426 461.153 20.426C460.901 20.426 460.625 20.336 460.325 20.156C460.037 19.964 459.689 19.754 459.281 19.526C458.873 19.298 458.393 19.094 457.841 18.914C457.301 18.722 456.659 18.626 455.915 18.626C455.243 18.626 454.655 18.71 454.151 18.878C453.647 19.034 453.221 19.256 452.873 19.544C452.537 19.832 452.285 20.18 452.117 20.588C451.949 20.984 451.865 21.422 451.865 21.902C451.865 22.514 452.033 23.024 452.369 23.432C452.717 23.84 453.173 24.188 453.737 24.476C454.301 24.764 454.943 25.022 455.663 25.25C456.383 25.478 457.121 25.724 457.877 25.988C458.633 26.24 459.371 26.54 460.091 26.888C460.811 27.224 461.453 27.656 462.017 28.184C462.581 28.7 463.031 29.336 463.367 30.092C463.715 30.848 463.889 31.766 463.889 32.846C463.889 34.022 463.685 35.126 463.277 36.158C462.881 37.178 462.293 38.072 461.513 38.84C460.745 39.596 459.803 40.196 458.687 40.64C457.571 41.072 456.293 41.288 454.853 41.288C454.025 41.288 453.209 41.204 452.405 41.036C451.601 40.88 450.827 40.652 450.083 40.352C449.351 40.052 448.661 39.692 448.013 39.272C447.365 38.852 446.789 38.384 446.285 37.868L447.707 35.546C447.827 35.378 447.983 35.24 448.175 35.132C448.367 35.012 448.571 34.952 448.787 34.952C449.087 34.952 449.411 35.078 449.759 35.33C450.107 35.57 450.521 35.84 451.001 36.14C451.481 36.44 452.039 36.716 452.675 36.968C453.323 37.208 454.097 37.328 454.997 37.328C456.377 37.328 457.445 37.004 458.201 36.356C458.957 35.696 459.335 34.754 459.335 33.53C459.335 32.846 459.161 32.288 458.813 31.856C458.477 31.424 458.027 31.064 457.463 30.776C456.899 30.476 456.257 30.224 455.537 30.02C454.817 29.816 454.085 29.594 453.341 29.354C452.597 29.114 451.865 28.826 451.145 28.49C450.425 28.154 449.783 27.716 449.219 27.176C448.655 26.636 448.199 25.964 447.851 25.16C447.515 24.344 447.347 23.342 447.347 22.154C447.347 21.206 447.533 20.282 447.905 19.382C448.289 18.482 448.841 17.684 449.561 16.988C450.281 16.292 451.169 15.734 452.225 15.314C453.281 14.894 454.493 14.684 455.861 14.684C457.397 14.684 458.813 14.924 460.109 15.404C461.405 15.884 462.509 16.556 463.421 17.42L462.215 19.706ZM482.573 28.832C481.613 29.456 480.911 30.164 480.467 30.956C480.035 31.736 479.819 32.576 479.819 33.476C479.819 34.136 479.933 34.73 480.161 35.258C480.389 35.786 480.695 36.236 481.079 36.608C481.475 36.968 481.931 37.25 482.447 37.454C482.975 37.646 483.533 37.742 484.121 37.742C485.177 37.742 486.143 37.58 487.019 37.256C487.895 36.92 488.687 36.458 489.395 35.87L482.573 28.832ZM499.907 41H495.551C495.095 41 494.723 40.946 494.435 40.838C494.159 40.73 493.865 40.502 493.553 40.154L491.753 38.3C490.613 39.236 489.335 39.968 487.919 40.496C486.503 41.024 484.973 41.288 483.329 41.288C482.333 41.288 481.349 41.12 480.377 40.784C479.417 40.436 478.559 39.938 477.803 39.29C477.047 38.642 476.435 37.862 475.967 36.95C475.511 36.026 475.283 34.988 475.283 33.836C475.283 33.02 475.415 32.252 475.679 31.532C475.943 30.8 476.309 30.122 476.777 29.498C477.245 28.874 477.803 28.316 478.451 27.824C479.099 27.32 479.807 26.888 480.575 26.528C479.927 25.628 479.459 24.752 479.171 23.9C478.883 23.036 478.739 22.178 478.739 21.326C478.739 20.426 478.901 19.574 479.225 18.77C479.561 17.954 480.041 17.246 480.665 16.646C481.289 16.046 482.057 15.572 482.969 15.224C483.881 14.864 484.913 14.684 486.065 14.684C487.121 14.684 488.063 14.846 488.891 15.17C489.731 15.494 490.445 15.926 491.033 16.466C491.633 17.006 492.101 17.624 492.437 18.32C492.785 19.016 492.989 19.736 493.049 20.48L490.223 21.074C489.695 21.182 489.311 20.954 489.071 20.39C488.963 20.078 488.819 19.784 488.639 19.508C488.471 19.22 488.267 18.974 488.027 18.77C487.787 18.554 487.505 18.386 487.181 18.266C486.857 18.134 486.485 18.068 486.065 18.068C485.561 18.068 485.111 18.158 484.715 18.338C484.319 18.506 483.983 18.74 483.707 19.04C483.443 19.328 483.239 19.67 483.095 20.066C482.951 20.45 482.879 20.858 482.879 21.29C482.879 21.65 482.915 21.998 482.987 22.334C483.059 22.67 483.179 23.006 483.347 23.342C483.515 23.678 483.731 24.026 483.995 24.386C484.271 24.734 484.607 25.112 485.003 25.52L491.915 32.702C492.311 31.946 492.629 31.148 492.869 30.308C493.109 29.468 493.265 28.616 493.337 27.752C493.373 27.476 493.469 27.254 493.625 27.086C493.781 26.918 493.997 26.834 494.273 26.834H497.045C497.033 28.418 496.805 29.93 496.361 31.37C495.917 32.81 495.281 34.136 494.453 35.348L499.907 41ZM529.545 34.862C529.809 34.862 530.043 34.964 530.247 35.168L532.155 37.238C531.099 38.546 529.797 39.548 528.249 40.244C526.713 40.94 524.865 41.288 522.705 41.288C520.773 41.288 519.033 40.958 517.485 40.298C515.949 39.638 514.635 38.72 513.543 37.544C512.451 36.368 511.611 34.964 511.023 33.332C510.447 31.7 510.159 29.918 510.159 27.986C510.159 26.03 510.471 24.242 511.095 22.622C511.719 20.99 512.595 19.586 513.723 18.41C514.863 17.234 516.219 16.322 517.791 15.674C519.363 15.014 521.103 14.684 523.011 14.684C524.907 14.684 526.587 14.996 528.051 15.62C529.527 16.244 530.781 17.06 531.813 18.068L530.193 20.318C530.097 20.462 529.971 20.588 529.815 20.696C529.671 20.804 529.467 20.858 529.203 20.858C529.023 20.858 528.837 20.81 528.645 20.714C528.453 20.606 528.243 20.48 528.015 20.336C527.787 20.18 527.523 20.012 527.223 19.832C526.923 19.652 526.575 19.49 526.179 19.346C525.783 19.19 525.321 19.064 524.793 18.968C524.277 18.86 523.677 18.806 522.993 18.806C521.829 18.806 520.761 19.016 519.789 19.436C518.829 19.844 518.001 20.444 517.305 21.236C516.609 22.016 516.069 22.976 515.685 24.116C515.301 25.244 515.109 26.534 515.109 27.986C515.109 29.45 515.313 30.752 515.721 31.892C516.141 33.032 516.705 33.992 517.413 34.772C518.121 35.552 518.955 36.152 519.915 36.572C520.875 36.98 521.907 37.184 523.011 37.184C523.671 37.184 524.265 37.148 524.793 37.076C525.333 37.004 525.825 36.89 526.269 36.734C526.725 36.578 527.151 36.38 527.547 36.14C527.955 35.888 528.357 35.582 528.753 35.222C528.873 35.114 528.999 35.03 529.131 34.97C529.263 34.898 529.401 34.862 529.545 34.862ZM559.732 27.986C559.732 29.894 559.414 31.664 558.778 33.296C558.154 34.916 557.266 36.32 556.114 37.508C554.962 38.696 553.576 39.626 551.956 40.298C550.336 40.958 548.536 41.288 546.556 41.288C544.588 41.288 542.794 40.958 541.174 40.298C539.554 39.626 538.162 38.696 536.998 37.508C535.846 36.32 534.952 34.916 534.316 33.296C533.68 31.664 533.362 29.894 533.362 27.986C533.362 26.078 533.68 24.314 534.316 22.694C534.952 21.062 535.846 19.652 536.998 18.464C538.162 17.276 539.554 16.352 541.174 15.692C542.794 15.02 544.588 14.684 546.556 14.684C547.876 14.684 549.118 14.84 550.282 15.152C551.446 15.452 552.514 15.884 553.486 16.448C554.458 17 555.328 17.678 556.096 18.482C556.876 19.274 557.536 20.162 558.076 21.146C558.616 22.13 559.024 23.198 559.3 24.35C559.588 25.502 559.732 26.714 559.732 27.986ZM554.782 27.986C554.782 26.558 554.59 25.28 554.206 24.152C553.822 23.012 553.276 22.046 552.568 21.254C551.86 20.462 550.996 19.856 549.976 19.436C548.968 19.016 547.828 18.806 546.556 18.806C545.284 18.806 544.138 19.016 543.118 19.436C542.11 19.856 541.246 20.462 540.526 21.254C539.818 22.046 539.272 23.012 538.888 24.152C538.504 25.28 538.312 26.558 538.312 27.986C538.312 29.414 538.504 30.698 538.888 31.838C539.272 32.966 539.818 33.926 540.526 34.718C541.246 35.498 542.11 36.098 543.118 36.518C544.138 36.938 545.284 37.148 546.556 37.148C547.828 37.148 548.968 36.938 549.976 36.518C550.996 36.098 551.86 35.498 552.568 34.718C553.276 33.926 553.822 32.966 554.206 31.838C554.59 30.698 554.782 29.414 554.782 27.986ZM585.926 14.972V41H583.442C583.058 41 582.734 40.94 582.47 40.82C582.218 40.688 581.972 40.472 581.732 40.172L568.142 22.82C568.214 23.612 568.25 24.344 568.25 25.016V41H563.984V14.972H566.522C566.726 14.972 566.9 14.984 567.044 15.008C567.2 15.02 567.332 15.056 567.44 15.116C567.56 15.164 567.674 15.242 567.782 15.35C567.89 15.446 568.01 15.578 568.142 15.746L581.786 33.17C581.75 32.75 581.72 32.336 581.696 31.928C581.672 31.52 581.66 31.142 581.66 30.794V14.972H585.926ZM614.834 27.986C614.834 29.894 614.516 31.646 613.88 33.242C613.244 34.838 612.35 36.212 611.198 37.364C610.046 38.516 608.66 39.41 607.04 40.046C605.42 40.682 603.62 41 601.64 41H591.722V14.972H601.64C603.62 14.972 605.42 15.296 607.04 15.944C608.66 16.58 610.046 17.474 611.198 18.626C612.35 19.766 613.244 21.134 613.88 22.73C614.516 24.326 614.834 26.078 614.834 27.986ZM609.866 27.986C609.866 26.558 609.674 25.28 609.29 24.152C608.918 23.012 608.372 22.052 607.652 21.272C606.944 20.48 606.08 19.874 605.06 19.454C604.052 19.034 602.912 18.824 601.64 18.824H596.582V37.148H601.64C602.912 37.148 604.052 36.938 605.06 36.518C606.08 36.098 606.944 35.498 607.652 34.718C608.372 33.926 608.918 32.966 609.29 31.838C609.674 30.698 609.866 29.414 609.866 27.986ZM623.969 41H619.109V14.972H623.969V41ZM647.976 18.95H640.128V41H635.286V18.95H627.438V14.972H647.976V18.95ZM656.242 41H651.382V14.972H656.242V41ZM686.892 27.986C686.892 29.894 686.574 31.664 685.938 33.296C685.314 34.916 684.426 36.32 683.274 37.508C682.122 38.696 680.736 39.626 679.116 40.298C677.496 40.958 675.696 41.288 673.716 41.288C671.748 41.288 669.954 40.958 668.334 40.298C666.714 39.626 665.322 38.696 664.158 37.508C663.006 36.32 662.112 34.916 661.476 33.296C660.84 31.664 660.522 29.894 660.522 27.986C660.522 26.078 660.84 24.314 661.476 22.694C662.112 21.062 663.006 19.652 664.158 18.464C665.322 17.276 666.714 16.352 668.334 15.692C669.954 15.02 671.748 14.684 673.716 14.684C675.036 14.684 676.278 14.84 677.442 15.152C678.606 15.452 679.674 15.884 680.646 16.448C681.618 17 682.488 17.678 683.256 18.482C684.036 19.274 684.696 20.162 685.236 21.146C685.776 22.13 686.184 23.198 686.46 24.35C686.748 25.502 686.892 26.714 686.892 27.986ZM681.942 27.986C681.942 26.558 681.75 25.28 681.366 24.152C680.982 23.012 680.436 22.046 679.728 21.254C679.02 20.462 678.156 19.856 677.136 19.436C676.128 19.016 674.988 18.806 673.716 18.806C672.444 18.806 671.298 19.016 670.278 19.436C669.27 19.856 668.406 20.462 667.686 21.254C666.978 22.046 666.432 23.012 666.048 24.152C665.664 25.28 665.472 26.558 665.472 27.986C665.472 29.414 665.664 30.698 666.048 31.838C666.432 32.966 666.978 33.926 667.686 34.718C668.406 35.498 669.27 36.098 670.278 36.518C671.298 36.938 672.444 37.148 673.716 37.148C674.988 37.148 676.128 36.938 677.136 36.518C678.156 36.098 679.02 35.498 679.728 34.718C680.436 33.926 680.982 32.966 681.366 31.838C681.75 30.698 681.942 29.414 681.942 27.986ZM713.086 14.972V41H710.602C710.218 41 709.894 40.94 709.63 40.82C709.378 40.688 709.132 40.472 708.892 40.172L695.302 22.82C695.374 23.612 695.41 24.344 695.41 25.016V41H691.144V14.972H693.682C693.886 14.972 694.06 14.984 694.204 15.008C694.36 15.02 694.492 15.056 694.6 15.116C694.72 15.164 694.834 15.242 694.942 15.35C695.05 15.446 695.17 15.578 695.302 15.746L708.946 33.17C708.91 32.75 708.88 32.336 708.856 31.928C708.832 31.52 708.82 31.142 708.82 30.794V14.972H713.086ZM732.742 19.706C732.598 19.958 732.442 20.144 732.274 20.264C732.118 20.372 731.92 20.426 731.68 20.426C731.428 20.426 731.152 20.336 730.852 20.156C730.564 19.964 730.216 19.754 729.808 19.526C729.4 19.298 728.92 19.094 728.368 18.914C727.828 18.722 727.186 18.626 726.442 18.626C725.77 18.626 725.182 18.71 724.678 18.878C724.174 19.034 723.748 19.256 723.4 19.544C723.064 19.832 722.812 20.18 722.644 20.588C722.476 20.984 722.392 21.422 722.392 21.902C722.392 22.514 722.56 23.024 722.896 23.432C723.244 23.84 723.7 24.188 724.264 24.476C724.828 24.764 725.47 25.022 726.19 25.25C726.91 25.478 727.648 25.724 728.404 25.988C729.16 26.24 729.898 26.54 730.618 26.888C731.338 27.224 731.98 27.656 732.544 28.184C733.108 28.7 733.558 29.336 733.894 30.092C734.242 30.848 734.416 31.766 734.416 32.846C734.416 34.022 734.212 35.126 733.804 36.158C733.408 37.178 732.82 38.072 732.04 38.84C731.272 39.596 730.33 40.196 729.214 40.64C728.098 41.072 726.82 41.288 725.38 41.288C724.552 41.288 723.736 41.204 722.932 41.036C722.128 40.88 721.354 40.652 720.61 40.352C719.878 40.052 719.188 39.692 718.54 39.272C717.892 38.852 717.316 38.384 716.812 37.868L718.234 35.546C718.354 35.378 718.51 35.24 718.702 35.132C718.894 35.012 719.098 34.952 719.314 34.952C719.614 34.952 719.938 35.078 720.286 35.33C720.634 35.57 721.048 35.84 721.528 36.14C722.008 36.44 722.566 36.716 723.202 36.968C723.85 37.208 724.624 37.328 725.524 37.328C726.904 37.328 727.972 37.004 728.728 36.356C729.484 35.696 729.862 34.754 729.862 33.53C729.862 32.846 729.688 32.288 729.34 31.856C729.004 31.424 728.554 31.064 727.99 30.776C727.426 30.476 726.784 30.224 726.064 30.02C725.344 29.816 724.612 29.594 723.868 29.354C723.124 29.114 722.392 28.826 721.672 28.49C720.952 28.154 720.31 27.716 719.746 27.176C719.182 26.636 718.726 25.964 718.378 25.16C718.042 24.344 717.874 23.342 717.874 22.154C717.874 21.206 718.06 20.282 718.432 19.382C718.816 18.482 719.368 17.684 720.088 16.988C720.808 16.292 721.696 15.734 722.752 15.314C723.808 14.894 725.02 14.684 726.388 14.684C727.924 14.684 729.34 14.924 730.636 15.404C731.932 15.884 733.036 16.556 733.948 17.42L732.742 19.706Z" fill="#D32616"/>
<path d="M923.596 26.1531C920.916 26.1086 918.563 26.5106 918.34 27.0524C918.118 27.5943 920.112 28.0694 922.792 28.1139C925.473 28.1583 927.826 27.7563 928.049 27.2145C928.27 26.6743 926.277 26.1992 923.596 26.1531Z" fill="#D22A1F"/>
<path d="M911.423 25.6208C907.85 25.5604 904.711 26.0974 904.414 26.8204C904.117 27.5418 906.776 28.1758 910.351 28.2362C913.924 28.2966 917.062 27.7595 917.36 27.0365C917.655 26.3135 914.997 25.6811 911.423 25.6208Z" fill="#D22A1F"/>
<path d="M895.192 24.9105C890.427 24.831 886.242 25.5461 885.848 26.509C885.452 27.4719 888.995 28.3172 893.762 28.3967C898.527 28.4761 902.713 27.7611 903.107 26.7982C903.501 25.8353 899.958 24.9899 895.192 24.9105Z" fill="#D22A1F"/>
<path d="M873.551 23.9619C867.197 23.8554 861.618 24.8104 861.092 26.0927C860.566 27.3766 865.29 28.5031 871.644 28.6096C877.998 28.716 883.577 27.7627 884.105 26.4788C884.632 25.1949 879.905 24.0683 873.551 23.9619Z" fill="#D22A1F"/>
<path d="M844.695 22.6987C836.223 22.5572 828.785 23.83 828.081 25.5413C827.378 27.2526 833.677 28.7558 842.151 28.8972C850.623 29.0386 858.061 27.7675 858.764 26.0561C859.466 24.3432 853.167 22.8417 844.695 22.6987Z" fill="#D22A1F"/>
<path d="M806.222 21.0144C794.924 20.8253 785.007 22.5223 784.071 24.804C783.134 27.0858 791.533 29.0895 802.829 29.2786C814.127 29.4677 824.043 27.7706 824.981 25.4889C825.917 23.2071 817.517 21.2051 806.222 21.0144Z" fill="#D22A1F"/>
<path d="M938.36 27.8469C941.04 27.8914 943.394 27.4894 943.616 26.9475C943.839 26.4057 941.844 25.9306 939.164 25.8861C936.483 25.8416 934.13 26.2436 933.908 26.7855C933.685 27.3273 935.679 27.8024 938.36 27.8469Z" fill="#D22A1F"/>
<path d="M950.533 28.3808C954.107 28.4411 957.245 27.9041 957.542 27.1811C957.839 26.4597 955.181 25.8257 951.606 25.7653C948.032 25.705 944.894 26.242 944.597 26.965C944.301 27.6864 946.959 28.3204 950.533 28.3808Z" fill="#D22A1F"/>
<path d="M966.764 29.0911C971.529 29.1705 975.714 28.4555 976.109 27.4925C976.504 26.5296 972.961 25.6843 968.194 25.6049C963.429 25.5254 959.243 26.2405 958.849 27.2034C958.455 28.1663 961.999 29.0116 966.764 29.0911Z" fill="#D22A1F"/>
<path d="M988.406 30.0381C994.76 30.1445 1000.34 29.1895 1000.87 27.9073C1001.39 26.6234 996.667 25.4968 990.313 25.3903C983.958 25.2839 978.38 26.2388 977.854 27.5211C977.326 28.805 982.052 29.9316 988.406 30.0381Z" fill="#D22A1F"/>
<path d="M1017.26 31.3013C1025.73 31.4427 1033.17 30.1715 1033.87 28.4602C1034.58 26.7489 1028.28 25.2473 1019.8 25.1043C1011.33 24.9629 1003.89 26.2357 1003.19 27.9454C1002.49 29.6567 1008.79 31.1599 1017.26 31.3013Z" fill="#D22A1F"/>
<path d="M1055.74 32.9856C1067.03 33.1747 1076.95 31.4777 1077.89 29.1959C1078.82 26.9142 1070.42 24.9105 1059.13 24.7214C1047.83 24.5323 1037.91 26.2293 1036.97 28.5111C1036.04 30.7928 1044.44 32.7965 1055.74 32.9856Z" fill="#D22A1F"/>
</g>
<defs>
<filter id="filter0_d_95_494" x="0.0439453" y="0" width="1081.91" height="62" filterUnits="userSpaceOnUse" color-interpolation-filters="sRGB">
<feFlood flood-opacity="0" result="BackgroundImageFix"/>
<feColorMatrix in="SourceAlpha" type="matrix" values="0 0 0 0 0 0 0 0 0 0 0 0 0 0 0 0 0 0 127 0" result="hardAlpha"/>
<feOffset dy="4"/>
<feGaussianBlur stdDeviation="2"/>
<feComposite in2="hardAlpha" operator="out"/>
<feColorMatrix type="matrix" values="0 0 0 0 0 0 0 0 0 0 0 0 0 0 0 0 0 0 0.25 0"/>
<feBlend mode="normal" in2="BackgroundImageFix" result="effect1_dropShadow_95_494"/>
<feBlend mode="normal" in="SourceGraphic" in2="effect1_dropShadow_95_494" result="shape"/>
</filter>
</defs>
</svg>
