<svg width="952" height="54" viewBox="0 0 952 54" fill="none" xmlns="http://www.w3.org/2000/svg">
<g filter="url(#filter0_d_51_2899)">
<path d="M143.64 26.153C140.96 26.1085 138.607 26.5105 138.384 27.0524C138.162 27.5942 140.156 28.0693 142.836 28.1138C145.517 28.1583 147.87 27.7563 148.093 27.2144C148.314 26.6742 146.321 26.1991 143.64 26.153Z" fill="#D22A1F"/>
<path d="M131.467 25.6208C127.894 25.5605 124.756 26.0975 124.458 26.8205C124.161 27.5419 126.82 28.1759 130.395 28.2363C133.968 28.2966 137.107 27.7596 137.404 27.0366C137.699 26.3136 135.041 25.6812 131.467 25.6208Z" fill="#D22A1F"/>
<path d="M115.236 24.9106C110.471 24.8311 106.285 25.5462 105.891 26.5091C105.496 27.472 109.039 28.3173 113.806 28.3968C118.571 28.4762 122.757 27.7612 123.151 26.7983C123.545 25.8354 120.001 24.99 115.236 24.9106Z" fill="#D22A1F"/>
<path d="M93.5945 23.962C87.2402 23.8555 81.6614 24.8105 81.1354 26.0928C80.6095 27.3766 85.3334 28.5032 91.6877 28.6097C98.0419 28.7161 103.621 27.7628 104.148 26.4789C104.676 25.195 99.9487 24.0684 93.5945 23.962Z" fill="#D22A1F"/>
<path d="M64.7389 22.6987C56.2666 22.5573 48.8287 23.8301 48.1248 25.5414C47.4224 27.2527 53.721 28.7558 62.195 28.8973C70.6673 29.0387 78.1053 27.7675 78.8076 26.0562C79.5099 24.3433 73.2113 22.8417 64.7389 22.6987Z" fill="#D22A1F"/>
<path d="M26.2655 21.0144C14.968 20.8253 5.05131 22.5223 4.11541 24.804C3.17792 27.0858 11.5772 29.0895 22.8731 29.2786C34.1707 29.4677 44.0873 27.7706 45.0248 25.4889C45.9607 23.2071 37.5615 21.2051 26.2655 21.0144Z" fill="#D22A1F"/>
<path d="M158.403 27.847C161.084 27.8915 163.437 27.4895 163.66 26.9476C163.882 26.4058 161.888 25.9307 159.207 25.8862C156.527 25.8417 154.174 26.2437 153.951 26.7855C153.729 27.3274 155.723 27.8025 158.403 27.847Z" fill="#D22A1F"/>
<path d="M170.576 28.3808C174.15 28.4412 177.288 27.9041 177.585 27.1811C177.883 26.4597 175.224 25.8258 171.649 25.7654C168.075 25.705 164.937 26.242 164.64 26.965C164.345 27.6864 167.003 28.3204 170.576 28.3808Z" fill="#D22A1F"/>
<path d="M186.808 29.0911C191.573 29.1705 195.758 28.4555 196.152 27.4926C196.548 26.5297 193.005 25.6844 188.238 25.6049C183.473 25.5255 179.287 26.2405 178.893 27.2034C178.499 28.1663 182.042 29.0116 186.808 29.0911Z" fill="#D22A1F"/>
<path d="M208.449 30.0381C214.804 30.1446 220.382 29.1896 220.908 27.9073C221.434 26.6235 216.71 25.4969 210.356 25.3904C204.002 25.284 198.423 26.2389 197.897 27.5212C197.37 28.8051 202.095 29.9317 208.449 30.0381Z" fill="#D22A1F"/>
<path d="M237.305 31.3012C245.777 31.4426 253.215 30.1714 253.919 28.4601C254.621 26.7488 248.323 25.2472 239.849 25.1042C231.376 24.9628 223.939 26.2356 223.236 27.9453C222.534 29.6566 228.833 31.1598 237.305 31.3012Z" fill="#D22A1F"/>
<path d="M275.778 32.9856C287.076 33.1747 296.993 31.4777 297.929 29.1959C298.866 26.9142 290.467 24.9105 279.169 24.7214C267.872 24.5323 257.955 26.2293 257.018 28.5111C256.083 30.7928 264.481 32.7965 275.778 32.9856Z" fill="#D22A1F"/>
<path d="M367.078 18.95H359.23V41H354.388V18.95H346.54V14.972H367.078V18.95ZM375.344 18.824V26.042H384.452V29.768H375.344V37.13H386.9V41H370.484V14.972H386.9V18.824H375.344ZM405.051 19.706C404.907 19.958 404.751 20.144 404.583 20.264C404.427 20.372 404.229 20.426 403.989 20.426C403.737 20.426 403.461 20.336 403.161 20.156C402.873 19.964 402.525 19.754 402.117 19.526C401.709 19.298 401.229 19.094 400.677 18.914C400.137 18.722 399.495 18.626 398.751 18.626C398.079 18.626 397.491 18.71 396.987 18.878C396.483 19.034 396.057 19.256 395.709 19.544C395.373 19.832 395.121 20.18 394.953 20.588C394.785 20.984 394.701 21.422 394.701 21.902C394.701 22.514 394.869 23.024 395.205 23.432C395.553 23.84 396.009 24.188 396.573 24.476C397.137 24.764 397.779 25.022 398.499 25.25C399.219 25.478 399.957 25.724 400.713 25.988C401.469 26.24 402.207 26.54 402.927 26.888C403.647 27.224 404.289 27.656 404.853 28.184C405.417 28.7 405.867 29.336 406.203 30.092C406.551 30.848 406.725 31.766 406.725 32.846C406.725 34.022 406.521 35.126 406.113 36.158C405.717 37.178 405.129 38.072 404.349 38.84C403.581 39.596 402.639 40.196 401.523 40.64C400.407 41.072 399.129 41.288 397.689 41.288C396.861 41.288 396.045 41.204 395.241 41.036C394.437 40.88 393.663 40.652 392.919 40.352C392.187 40.052 391.497 39.692 390.849 39.272C390.201 38.852 389.625 38.384 389.121 37.868L390.543 35.546C390.663 35.378 390.819 35.24 391.011 35.132C391.203 35.012 391.407 34.952 391.623 34.952C391.923 34.952 392.247 35.078 392.595 35.33C392.943 35.57 393.357 35.84 393.837 36.14C394.317 36.44 394.875 36.716 395.511 36.968C396.159 37.208 396.933 37.328 397.833 37.328C399.213 37.328 400.281 37.004 401.037 36.356C401.793 35.696 402.171 34.754 402.171 33.53C402.171 32.846 401.997 32.288 401.649 31.856C401.313 31.424 400.863 31.064 400.299 30.776C399.735 30.476 399.093 30.224 398.373 30.02C397.653 29.816 396.921 29.594 396.177 29.354C395.433 29.114 394.701 28.826 393.981 28.49C393.261 28.154 392.619 27.716 392.055 27.176C391.491 26.636 391.035 25.964 390.687 25.16C390.351 24.344 390.183 23.342 390.183 22.154C390.183 21.206 390.369 20.282 390.741 19.382C391.125 18.482 391.677 17.684 392.397 16.988C393.117 16.292 394.005 15.734 395.061 15.314C396.117 14.894 397.329 14.684 398.697 14.684C400.233 14.684 401.649 14.924 402.945 15.404C404.241 15.884 405.345 16.556 406.257 17.42L405.051 19.706ZM429.129 18.95H421.281V41H416.439V18.95H408.591V14.972H429.129V18.95ZM437.395 41H432.535V14.972H437.395V41ZM471.446 14.972V41H467.18V24.188C467.18 23.516 467.216 22.79 467.288 22.01L459.422 36.788C459.05 37.496 458.48 37.85 457.712 37.85H457.028C456.26 37.85 455.69 37.496 455.318 36.788L447.362 21.956C447.398 22.352 447.428 22.742 447.452 23.126C447.476 23.51 447.488 23.864 447.488 24.188V41H443.222V14.972H446.876C447.092 14.972 447.278 14.978 447.434 14.99C447.59 15.002 447.728 15.032 447.848 15.08C447.98 15.128 448.094 15.206 448.19 15.314C448.298 15.422 448.4 15.566 448.496 15.746L456.29 30.2C456.494 30.584 456.68 30.98 456.848 31.388C457.028 31.796 457.202 32.216 457.37 32.648C457.538 32.204 457.712 31.778 457.892 31.37C458.072 30.95 458.264 30.548 458.468 30.164L466.154 15.746C466.25 15.566 466.352 15.422 466.46 15.314C466.568 15.206 466.682 15.128 466.802 15.08C466.934 15.032 467.078 15.002 467.234 14.99C467.39 14.978 467.576 14.972 467.792 14.972H471.446ZM502.075 27.986C502.075 29.894 501.757 31.664 501.121 33.296C500.497 34.916 499.609 36.32 498.457 37.508C497.305 38.696 495.919 39.626 494.299 40.298C492.679 40.958 490.879 41.288 488.899 41.288C486.931 41.288 485.137 40.958 483.517 40.298C481.897 39.626 480.505 38.696 479.341 37.508C478.189 36.32 477.295 34.916 476.659 33.296C476.023 31.664 475.705 29.894 475.705 27.986C475.705 26.078 476.023 24.314 476.659 22.694C477.295 21.062 478.189 19.652 479.341 18.464C480.505 17.276 481.897 16.352 483.517 15.692C485.137 15.02 486.931 14.684 488.899 14.684C490.219 14.684 491.461 14.84 492.625 15.152C493.789 15.452 494.857 15.884 495.829 16.448C496.801 17 497.671 17.678 498.439 18.482C499.219 19.274 499.879 20.162 500.419 21.146C500.959 22.13 501.367 23.198 501.643 24.35C501.931 25.502 502.075 26.714 502.075 27.986ZM497.125 27.986C497.125 26.558 496.933 25.28 496.549 24.152C496.165 23.012 495.619 22.046 494.911 21.254C494.203 20.462 493.339 19.856 492.319 19.436C491.311 19.016 490.171 18.806 488.899 18.806C487.627 18.806 486.481 19.016 485.461 19.436C484.453 19.856 483.589 20.462 482.869 21.254C482.161 22.046 481.615 23.012 481.231 24.152C480.847 25.28 480.655 26.558 480.655 27.986C480.655 29.414 480.847 30.698 481.231 31.838C481.615 32.966 482.161 33.926 482.869 34.718C483.589 35.498 484.453 36.098 485.461 36.518C486.481 36.938 487.627 37.148 488.899 37.148C490.171 37.148 491.311 36.938 492.319 36.518C493.339 36.098 494.203 35.498 494.911 34.718C495.619 33.926 496.165 32.966 496.549 31.838C496.933 30.698 497.125 29.414 497.125 27.986ZM528.27 14.972V41H525.786C525.402 41 525.078 40.94 524.814 40.82C524.562 40.688 524.316 40.472 524.076 40.172L510.486 22.82C510.558 23.612 510.594 24.344 510.594 25.016V41H506.328V14.972H508.866C509.07 14.972 509.244 14.984 509.388 15.008C509.544 15.02 509.676 15.056 509.784 15.116C509.904 15.164 510.018 15.242 510.126 15.35C510.234 15.446 510.354 15.578 510.486 15.746L524.13 33.17C524.094 32.75 524.064 32.336 524.04 31.928C524.016 31.52 524.004 31.142 524.004 30.794V14.972H528.27ZM538.926 41H534.066V14.972H538.926V41ZM558.505 31.172L555.337 22.514C555.181 22.13 555.019 21.674 554.851 21.146C554.683 20.618 554.515 20.048 554.347 19.436C554.191 20.048 554.029 20.624 553.861 21.164C553.693 21.692 553.531 22.154 553.375 22.55L550.225 31.172H558.505ZM567.055 41H563.311C562.891 41 562.549 40.898 562.285 40.694C562.021 40.478 561.823 40.214 561.691 39.902L559.747 34.592H548.965L547.021 39.902C546.925 40.178 546.739 40.43 546.463 40.658C546.187 40.886 545.845 41 545.437 41H541.657L551.899 14.972H556.831L567.055 41ZM584.996 37.004V41H569.75V14.972H574.592V37.004H584.996ZM602.313 19.706C602.169 19.958 602.013 20.144 601.845 20.264C601.689 20.372 601.491 20.426 601.251 20.426C600.999 20.426 600.723 20.336 600.423 20.156C600.135 19.964 599.787 19.754 599.379 19.526C598.971 19.298 598.491 19.094 597.939 18.914C597.399 18.722 596.757 18.626 596.013 18.626C595.341 18.626 594.753 18.71 594.249 18.878C593.745 19.034 593.319 19.256 592.971 19.544C592.635 19.832 592.383 20.18 592.215 20.588C592.047 20.984 591.963 21.422 591.963 21.902C591.963 22.514 592.131 23.024 592.467 23.432C592.815 23.84 593.271 24.188 593.835 24.476C594.399 24.764 595.041 25.022 595.761 25.25C596.481 25.478 597.219 25.724 597.975 25.988C598.731 26.24 599.469 26.54 600.189 26.888C600.909 27.224 601.551 27.656 602.115 28.184C602.679 28.7 603.129 29.336 603.465 30.092C603.813 30.848 603.987 31.766 603.987 32.846C603.987 34.022 603.783 35.126 603.375 36.158C602.979 37.178 602.391 38.072 601.611 38.84C600.843 39.596 599.901 40.196 598.785 40.64C597.669 41.072 596.391 41.288 594.951 41.288C594.123 41.288 593.307 41.204 592.503 41.036C591.699 40.88 590.925 40.652 590.181 40.352C589.449 40.052 588.759 39.692 588.111 39.272C587.463 38.852 586.887 38.384 586.383 37.868L587.805 35.546C587.925 35.378 588.081 35.24 588.273 35.132C588.465 35.012 588.669 34.952 588.885 34.952C589.185 34.952 589.509 35.078 589.857 35.33C590.205 35.57 590.619 35.84 591.099 36.14C591.579 36.44 592.137 36.716 592.773 36.968C593.421 37.208 594.195 37.328 595.095 37.328C596.475 37.328 597.543 37.004 598.299 36.356C599.055 35.696 599.433 34.754 599.433 33.53C599.433 32.846 599.259 32.288 598.911 31.856C598.575 31.424 598.125 31.064 597.561 30.776C596.997 30.476 596.355 30.224 595.635 30.02C594.915 29.816 594.183 29.594 593.439 29.354C592.695 29.114 591.963 28.826 591.243 28.49C590.523 28.154 589.881 27.716 589.317 27.176C588.753 26.636 588.297 25.964 587.949 25.16C587.613 24.344 587.445 23.342 587.445 22.154C587.445 21.206 587.631 20.282 588.003 19.382C588.387 18.482 588.939 17.684 589.659 16.988C590.379 16.292 591.267 15.734 592.323 15.314C593.379 14.894 594.591 14.684 595.959 14.684C597.495 14.684 598.911 14.924 600.207 15.404C601.503 15.884 602.607 16.556 603.519 17.42L602.313 19.706Z" fill="#D32616"/>
<path d="M793.596 26.153C790.916 26.1085 788.563 26.5105 788.34 27.0524C788.118 27.5942 790.112 28.0693 792.792 28.1138C795.473 28.1583 797.826 27.7563 798.049 27.2144C798.27 26.6742 796.277 26.1991 793.596 26.153Z" fill="#D22A1F"/>
<path d="M781.423 25.6208C777.85 25.5605 774.712 26.0975 774.414 26.8205C774.117 27.5419 776.776 28.1759 780.351 28.2363C783.924 28.2966 787.063 27.7596 787.36 27.0366C787.655 26.3136 784.997 25.6812 781.423 25.6208Z" fill="#D22A1F"/>
<path d="M765.192 24.9106C760.427 24.8311 756.242 25.5462 755.847 26.5091C755.452 27.472 758.995 28.3173 763.762 28.3968C768.527 28.4762 772.713 27.7612 773.107 26.7983C773.501 25.8354 769.957 24.99 765.192 24.9106Z" fill="#D22A1F"/>
<path d="M743.551 23.962C737.196 23.8555 731.617 24.8105 731.091 26.0928C730.566 27.3766 735.289 28.5032 741.644 28.6097C747.998 28.7161 753.577 27.7628 754.104 26.4789C754.632 25.195 749.905 24.0684 743.551 23.962Z" fill="#D22A1F"/>
<path d="M714.695 22.6987C706.223 22.5573 698.785 23.8301 698.081 25.5414C697.378 27.2527 703.677 28.7558 712.151 28.8973C720.623 29.0387 728.061 27.7675 728.764 26.0562C729.466 24.3433 723.167 22.8417 714.695 22.6987Z" fill="#D22A1F"/>
<path d="M676.222 21.0144C664.924 20.8253 655.007 22.5223 654.071 24.804C653.134 27.0858 661.533 29.0895 672.829 29.2786C684.127 29.4677 694.043 27.7706 694.981 25.4889C695.917 23.2071 687.518 21.2051 676.222 21.0144Z" fill="#D22A1F"/>
<path d="M808.36 27.847C811.04 27.8915 813.393 27.4895 813.616 26.9476C813.838 26.4058 811.844 25.9307 809.164 25.8862C806.483 25.8417 804.13 26.2437 803.907 26.7855C803.685 27.3274 805.679 27.8025 808.36 27.847Z" fill="#D22A1F"/>
<path d="M820.533 28.3808C824.106 28.4412 827.244 27.9041 827.541 27.1811C827.839 26.4597 825.18 25.8258 821.605 25.7654C818.031 25.705 814.893 26.242 814.596 26.965C814.301 27.6864 816.959 28.3204 820.533 28.3808Z" fill="#D22A1F"/>
<path d="M836.764 29.0911C841.529 29.1705 845.714 28.4555 846.108 27.4926C846.504 26.5297 842.961 25.6844 838.194 25.6049C833.429 25.5255 829.243 26.2405 828.849 27.2034C828.455 28.1663 831.999 29.0116 836.764 29.0911Z" fill="#D22A1F"/>
<path d="M858.405 30.0381C864.76 30.1446 870.339 29.1896 870.864 27.9073C871.39 26.6235 866.666 25.4969 860.312 25.3904C853.958 25.284 848.379 26.2389 847.853 27.5212C847.326 28.8051 852.051 29.9317 858.405 30.0381Z" fill="#D22A1F"/>
<path d="M887.261 31.3012C895.733 31.4426 903.171 30.1714 903.875 28.4601C904.577 26.7488 898.279 25.2472 889.805 25.1042C881.333 24.9628 873.895 26.2356 873.192 27.9453C872.49 29.6566 878.789 31.1598 887.261 31.3012Z" fill="#D22A1F"/>
<path d="M925.735 32.9856C937.032 33.1747 946.949 31.4777 947.885 29.1959C948.822 26.9142 940.423 24.9105 929.125 24.7214C917.828 24.5323 907.911 26.2293 906.974 28.5111C906.039 30.7928 914.437 32.7965 925.735 32.9856Z" fill="#D22A1F"/>
</g>
<defs>
<filter id="filter0_d_51_2899" x="0.0439758" y="0" width="951.912" height="62" filterUnits="userSpaceOnUse" color-interpolation-filters="sRGB">
<feFlood flood-opacity="0" result="BackgroundImageFix"/>
<feColorMatrix in="SourceAlpha" type="matrix" values="0 0 0 0 0 0 0 0 0 0 0 0 0 0 0 0 0 0 127 0" result="hardAlpha"/>
<feOffset dy="4"/>
<feGaussianBlur stdDeviation="2"/>
<feComposite in2="hardAlpha" operator="out"/>
<feColorMatrix type="matrix" values="0 0 0 0 0 0 0 0 0 0 0 0 0 0 0 0 0 0 0.25 0"/>
<feBlend mode="normal" in2="BackgroundImageFix" result="effect1_dropShadow_51_2899"/>
<feBlend mode="normal" in="SourceGraphic" in2="effect1_dropShadow_51_2899" result="shape"/>
</filter>
</defs>
</svg>
